<svg width="31" height="42" viewBox="0 0 31 42" fill="none" xmlns="http://www.w3.org/2000/svg">
<path d="M10.3634 13.1932C10.3048 12.4276 10.3398 11.6611 10.3634 10.8955C10.4264 8.90571 10.6364 6.93522 11.1658 5.00934C11.2936 4.54559 11.4222 4.08097 11.6541 3.65484C11.7022 3.64522 11.7512 3.63297 11.8002 3.62684C12.3637 3.55684 12.9246 3.47547 13.4916 3.42997C14.0717 3.38359 14.6518 3.34334 15.2337 3.32584C15.6554 3.31359 16.0772 3.32409 16.4989 3.32497C16.7439 3.32584 16.9907 3.31709 17.2348 3.33022C17.7651 3.35822 18.2953 3.39759 18.8256 3.43172C19.1248 4.01622 19.3129 4.64097 19.4766 5.27272C19.8887 6.86084 20.0821 8.48134 20.1748 10.1167C20.2334 11.1606 20.2544 12.2053 20.2256 13.2492C20.1836 14.7708 20.0856 16.3476 19.9176 17.8605C19.8764 17.8447 18.1046 16.681 17.2226 16.1962C16.2242 15.6467 15.2022 15.1462 14.1644 14.679C13.2772 14.2791 12.3759 13.9107 11.4642 13.5721C11.1011 13.4373 10.7476 13.2685 10.3634 13.1932Z" fill="#00933E"/>
<path d="M10.3635 13.1932C10.7476 13.2685 11.1011 13.4365 11.4642 13.5721C12.3768 13.9107 13.2772 14.28 14.1644 14.679C15.2022 15.1462 16.2242 15.6476 17.2226 16.1962C18.1037 16.681 18.9673 17.1946 19.8021 17.7555C19.8371 17.7791 19.8948 17.8194 19.9202 17.8316C19.9018 17.9935 19.8878 18.1274 19.8694 18.2892C19.7889 18.305 19.7154 18.3417 19.6446 18.3802C18.5788 18.9542 17.5699 19.614 16.6284 20.3735C15.8978 20.9632 15.2136 21.602 14.5757 22.2932C14.1443 22.7605 13.7462 23.2549 13.3288 23.7335C12.8607 23.1525 12.3943 22.5697 11.8973 22.0132C11.6261 21.7096 11.3715 21.3902 11.0608 21.1234C10.8815 19.9054 10.7231 18.6847 10.605 17.4606C10.5078 16.4544 10.4282 15.4464 10.3906 14.4349C10.3766 14.0219 10.353 13.608 10.3635 13.1932Z" fill="#2AC54B"/>
<path d="M24.08 16.5944C24.1702 15.89 24.2699 15.1882 24.3268 14.4795C24.4265 13.2291 24.4187 11.9814 24.2883 10.7327C24.1465 9.38524 23.8867 8.06399 23.4535 6.77774C23.1202 5.78637 22.6853 4.84312 22.1367 3.95237C22.1174 3.92175 22.1069 3.88587 22.092 3.85175C22.7518 3.94012 23.3993 4.08975 24.0529 4.21137C24.3819 4.27262 24.7013 4.38637 25.0373 4.4135C25.4512 4.83087 25.7758 5.31649 26.089 5.80912C26.9282 7.13037 27.4785 8.56362 27.7069 10.115C27.8557 11.1212 27.8574 12.1327 27.783 13.1451C27.7183 14.0236 27.587 14.8934 27.4155 15.757C27.4059 15.806 27.3884 15.8532 27.3744 15.9014C26.2562 16.0414 25.1624 16.2934 24.08 16.5944Z" fill="#00933E"/>
<path d="M15.287 38.2935C16.2758 38.2935 17.2636 38.2961 18.2524 38.2909C18.3924 38.29 18.4335 38.3075 18.3959 38.465C18.1316 39.5902 17.877 40.7172 17.625 41.8451C17.5979 41.9685 17.5471 42 17.4246 42C15.9958 41.9956 14.566 41.9956 13.1371 42C13.0243 42 12.9735 41.9702 12.9481 41.8574C12.6961 40.7365 12.445 39.6147 12.1781 38.4974C12.13 38.2961 12.1991 38.2909 12.3593 38.2917C13.3349 38.297 14.3114 38.2935 15.287 38.2935Z" fill="#607D8B"/>
<path d="M8.03672 4.61035C7.82935 5.08023 7.58697 5.53435 7.3971 6.01298C6.8756 7.33335 6.54397 8.70185 6.35672 10.1071C6.28672 10.6303 6.2386 11.1562 6.20097 11.6821C6.17122 11.802 6.12047 11.8553 5.98047 11.802C5.79935 11.7337 5.60947 11.6891 5.42047 11.6427C4.53935 11.4266 3.65822 11.2131 2.7771 10.9978C2.79635 10.4641 2.8856 9.93997 2.9941 9.4176C3.19885 8.42797 3.5576 7.49435 4.02397 6.6001C4.05022 6.55023 4.08347 6.50473 4.11322 6.4566C4.1421 6.44698 4.17447 6.4426 4.19985 6.42685C4.9121 5.98235 5.6506 5.58773 6.4171 5.24735C6.94735 5.01285 7.47672 4.77135 8.03672 4.61035Z" fill="#00933E"/>
<path d="M18.8256 3.4317C18.2953 3.39758 17.7651 3.3582 17.2348 3.3302C16.9898 3.31708 16.7439 3.32495 16.4989 3.32495C16.0772 3.32408 15.6554 3.31358 15.2337 3.32583C14.6527 3.34333 14.0717 3.3827 13.4916 3.42995C12.9246 3.47545 12.3637 3.55683 11.8002 3.62683C11.7512 3.63295 11.7031 3.6452 11.6541 3.65483C11.9778 2.82008 12.4442 2.07195 13.0418 1.40783C13.4959 0.902952 14.0314 0.508327 14.6256 0.175827C15.1042 -0.118173 15.5706 -4.7624e-05 16.0212 0.216077C16.9872 0.748077 17.7213 1.50758 18.2997 2.43245C18.5009 2.7527 18.6794 3.08433 18.8256 3.4317Z" fill="#2196F3"/>
<path d="M2.77808 10.9988C3.6592 11.2132 4.54033 11.4267 5.42145 11.6437C5.60958 11.69 5.80033 11.7338 5.98145 11.8029C6.12145 11.8554 6.1722 11.8029 6.20195 11.683C6.1687 12.3113 6.15908 12.9404 6.18708 13.5687C6.23608 14.6615 6.35508 15.7483 6.53708 16.8272C6.55108 16.912 6.57558 16.9978 6.55458 17.0853C6.1442 16.8088 5.7347 16.5305 5.32345 16.2558C4.6392 15.7982 3.9322 15.3799 3.2112 14.9827C3.14558 14.9468 3.07558 14.9179 3.00733 14.8855C2.78945 13.5984 2.69233 12.3043 2.77808 10.9988Z" fill="#2AC54B"/>
<path d="M30.0143 15.6546C29.6056 15.6791 29.1961 15.7028 28.7875 15.7273C29.0526 14.4078 29.2556 13.0778 29.2583 11.7294C29.2609 9.95926 28.8873 8.26701 28.1173 6.66663C27.8364 6.08301 27.4943 5.53613 27.1504 4.98926C27.2169 5.00501 27.2825 5.01901 27.349 5.03563C27.6124 5.10038 27.8609 5.21763 28.133 5.24826L28.1426 5.25613C28.154 5.26663 28.1654 5.27626 28.1776 5.28676C28.6195 5.78988 28.9721 6.35426 29.3003 6.93351C29.8559 7.91351 30.2566 8.95213 30.4561 10.0651C30.6075 10.9095 30.5891 11.7565 30.5069 12.6044C30.4133 13.5686 30.2671 14.5259 30.0624 15.4726C30.0484 15.533 30.03 15.5934 30.0143 15.6546Z" fill="#00933E"/>
<path d="M25.0363 4.41525C24.7003 4.38725 24.3818 4.27437 24.0519 4.21312C23.3983 4.0915 22.7508 3.941 22.091 3.8535C21.741 3.33987 21.3832 2.8315 20.9658 2.36862C20.0593 1.36237 19.0968 0.55475 17.8525 0C19.2832 0.307125 20.5318 0.8505 21.7734 1.61612C22.9809 2.36162 24.0537 3.26462 24.982 4.33912C25.0022 4.36275 25.0179 4.38987 25.0363 4.41525Z" fill="#2196F3"/>
<path d="M8.03678 4.61041C7.47678 4.77141 6.94741 5.01291 6.41716 5.24829C5.65066 5.58866 4.91128 5.98329 4.19991 6.42779C4.17453 6.44354 4.14216 6.44791 4.11328 6.45754C4.94978 4.94554 6.05403 3.66191 7.41116 2.59529C7.44441 2.56904 7.47065 2.52704 7.52228 2.53404C7.93878 2.82191 8.3544 3.10891 8.7709 3.39679C8.52678 3.80191 8.28178 4.20616 8.03678 4.61041Z" fill="#90CAF9"/>
<path d="M0.250977 9.54887C0.295602 9.18575 0.424227 8.8445 0.549352 8.505C1.04373 7.16975 1.78835 5.98237 2.70273 4.8965C3.48935 3.96287 4.37923 3.14212 5.3951 2.46137C5.74947 2.22425 6.1161 2.00725 6.52122 1.862C6.09947 2.18137 5.68385 2.50687 5.29448 2.86475C3.76848 4.27 2.6266 5.93162 1.9406 7.89687C1.92223 7.95025 1.90473 8.00362 1.88635 8.057C1.34998 8.51987 0.815352 8.98362 0.326227 9.49725C0.305227 9.51912 0.276352 9.53225 0.250977 9.54887Z" fill="#90CAF9"/>
<path d="M1.49446 14.1059C1.10246 13.9493 0.71133 13.7926 0.319331 13.6369C0.279081 13.6211 0.237081 13.6089 0.195956 13.5949C0.111956 13.2466 0.0970809 12.8896 0.0629559 12.5361C-0.00266908 11.8484 -0.0367939 11.1598 0.061206 10.4711C0.491706 10.5508 0.92133 10.6295 1.35183 10.7091C1.26871 11.7714 1.32908 12.8275 1.47871 13.881C1.48921 13.9545 1.49008 14.0306 1.49446 14.1059Z" fill="#2AC54B"/>
<path d="M1.3519 10.7083C0.921403 10.6286 0.491779 10.5499 0.0612793 10.4703C0.108529 10.1596 0.125154 9.84288 0.251154 9.54888C0.276529 9.53226 0.306279 9.51913 0.326404 9.49726C0.815529 8.98363 1.35015 8.51901 1.88653 8.05701C1.68965 8.72551 1.5129 9.39838 1.42715 10.0923C1.4009 10.2979 1.3764 10.5035 1.3519 10.7083Z" fill="#00933E"/>
<path d="M28.1147 5.19487C27.2003 4.07225 26.1669 3.07913 24.9349 2.30825C24.6479 2.12888 24.3592 1.94163 24.0232 1.85675C25.2464 2.7195 26.2807 3.77212 27.1496 4.98837C27.2161 5.00412 27.2817 5.01812 27.3482 5.03475C27.6116 5.0995 27.8601 5.21675 28.1322 5.24737C28.1269 5.229 28.1261 5.208 28.1147 5.19487Z" fill="#2196F3"/>
<path d="M18.6393 32.3584C18.8082 32.6611 18.9421 32.9805 19.0654 33.3034C18.3304 34.1906 17.5552 35.042 16.7379 35.8549C16.7301 35.847 16.6653 35.9223 16.7134 35.8321C17.1431 35.1234 17.5631 34.4094 17.9481 33.6753C18.1782 33.236 18.4092 32.7976 18.6393 32.3584Z" fill="#FF6F00"/>
<path d="M12.0556 0.15754C11.5052 0.324665 10.9549 0.49354 10.443 0.76479C10.3905 0.78404 10.3362 0.798915 10.2864 0.821665C9.51024 1.17779 8.77349 1.60304 8.07787 2.09654C7.88624 2.23216 7.69374 2.34591 7.48462 2.53316C7.90112 2.82104 8.35612 3.10891 8.77174 3.39679C9.11824 2.95929 9.44812 2.50779 9.84274 2.11054C10.0676 1.88391 10.2942 1.65816 10.52 1.43241C10.5847 1.43241 10.6171 1.37816 10.6582 1.34229C10.954 1.08679 11.2681 0.85754 11.5927 0.641415C11.9515 0.401665 12.3339 0.203915 12.7171 0.00354004C12.4914 0.044665 12.2709 0.091915 12.0556 0.15754Z" fill="#2196F3"/>
<path d="M19.3505 33.9623C19.389 34.0524 19.4266 34.1425 19.4651 34.2327C18.983 34.762 17.8936 35.8882 17.8813 35.8768C18.3503 35.2818 18.8806 34.5573 19.3505 33.9623Z" fill="#FF6F00"/>
<path d="M16.6469 35.9537L16.6382 35.9564L16.6487 35.9555L16.6469 35.9537Z" fill="#9A2150"/>
<path d="M6.58088 17.1246C6.57125 17.1106 6.56163 17.0966 6.552 17.0835C6.59488 17.0738 6.58088 17.1036 6.58088 17.1246Z" fill="#2AC54B"/>
<path d="M28.1766 5.28502C28.1652 5.27452 28.1539 5.26402 28.1416 5.25439C28.1539 5.26489 28.1652 5.27539 28.1766 5.28502Z" fill="#2AC54B"/>
<path d="M17.2102 29.5584L17.2163 29.5461L17.0527 29.2793C16.6301 28.5381 16.1444 27.8329 15.7034 27.0795C14.4531 24.9428 12.3933 22.5706 11.8963 22.0141C11.6251 21.7105 11.3704 21.3911 11.0598 21.1243C11.2156 22.1331 11.3766 23.142 11.5761 24.143C11.6837 24.6829 11.9164 25.7591 11.9164 25.7591L12.6786 29.0535C12.6847 29.0841 12.6899 29.1148 12.6969 29.1454C12.7039 29.1725 12.7118 29.1988 12.7179 29.2259L12.7451 29.344L12.8299 29.652C13.0837 30.6705 13.3453 31.6881 13.6323 32.6979C13.8598 33.4976 14.0969 34.2956 14.3314 35.0936L14.3349 35.105C14.4233 35.406 14.5117 35.707 14.5983 36.0089C14.6342 36.1314 14.6867 36.1786 14.8206 36.1734C15.1356 36.162 15.4506 36.1638 15.7656 36.1725C15.8828 36.176 15.9283 36.1331 15.9598 36.0255C16.1917 35.2363 16.4358 34.4496 16.6642 33.6595C16.9914 32.5246 17.3082 31.3863 17.5926 30.24C17.4727 30.0108 17.3379 29.7868 17.2102 29.5584Z" fill="#FF6F00"/>
<path d="M8.36057 23.8306C7.61157 21.637 6.9912 19.4083 6.58082 17.1246C6.5712 17.1115 6.56157 17.0975 6.55282 17.0844C6.14332 16.8079 5.73382 16.5305 5.32345 16.2557C4.6392 15.7981 3.9322 15.3799 3.2112 14.9826C3.14557 14.9467 3.07557 14.9179 3.00732 14.8864C3.01957 14.973 3.03007 15.0605 3.04582 15.1471C3.38795 17.0634 3.93745 18.9227 4.61032 20.7471C5.41532 22.9293 6.38832 25.0355 7.45495 27.1005C7.73582 27.6447 8.0307 28.1802 8.33257 28.7105C8.64407 28.0035 9.0037 27.2965 9.4132 26.6708C9.0422 25.7311 8.68695 24.787 8.36057 23.8306Z" fill="#9A2150"/>
<path d="M6.552 17.0835L6.55288 17.0844L6.55375 17.0852L6.552 17.0835Z" fill="#9A2150"/>
<path d="M7.92652 29.3833C6.47752 27.167 5.13528 24.8902 4.0389 22.4752C3.2164 20.664 2.53215 18.8046 2.04565 16.8735C1.81553 15.96 1.64228 15.0351 1.49528 14.1058C1.10328 13.9492 0.712152 13.7926 0.320152 13.6368C0.279902 13.6211 0.237902 13.6088 0.196777 13.5948C0.200277 13.6578 0.199402 13.7208 0.208152 13.783C0.426902 15.2853 0.780402 16.7553 1.25378 18.1973C2.27753 21.315 3.7764 24.2042 5.50015 26.9823C6.19227 28.0971 6.9474 29.1637 7.73665 30.2032C7.81977 29.974 7.90815 29.7395 8.00352 29.4988C7.97815 29.4603 7.95015 29.4192 7.92652 29.3833Z" fill="#9A2150"/>
<path d="M12.8048 34.7804C13.1294 35.1321 13.4593 35.4795 13.7935 35.8365C13.8373 35.7341 12.7532 33.9343 12.2999 33.0645C11.7837 32.0731 10.3102 28.8575 10.2909 28.812C9.98466 28.1033 9.69504 27.3884 9.41241 26.6709C9.00291 27.2965 8.64329 28.0026 8.33179 28.7105C8.94954 29.7955 9.61279 30.8534 10.36 31.8596C11.1178 32.8808 11.942 33.8468 12.8048 34.7804Z" fill="#FF6F00"/>
<path d="M11.8762 35.0472C12.1536 35.3255 12.4476 35.5871 12.7031 35.8269C12.7074 35.8697 9.45857 31.6986 8.00345 29.498C7.90807 29.7386 7.8197 29.974 7.73657 30.2024C8.77695 31.5735 9.88382 32.893 11.0502 34.167C11.3214 34.4636 11.5918 34.762 11.8762 35.0472Z" fill="#FF6F00"/>
<path d="M17.5952 30.2409L13.3296 23.7353C13.3296 23.7353 16.967 18.8572 19.8702 18.2902C19.8702 18.2902 19.3505 24.2655 17.5952 30.2409Z" fill="#BED70F"/>
<path d="M22.7823 22.0639C21.9502 24.7878 20.9185 27.4355 19.739 30.0255C19.3829 30.8078 19.0067 31.5804 18.6392 32.3583C18.808 32.661 18.9419 32.9804 19.0653 33.3033C19.6165 32.6812 20.1127 32.017 20.5922 31.3398C21.8478 29.5688 22.854 27.6552 23.8157 25.7162C24.1394 25.0643 24.4413 24.401 24.7388 23.736C24.9952 23.1647 25.2375 22.5889 25.472 22.0097L23.1699 20.6464C23.0422 21.1198 22.9258 21.5949 22.7823 22.0639Z" fill="#BED70F"/>
<path d="M30.0143 15.6545C29.9189 15.6598 29.8227 15.6659 29.7273 15.6712C29.8297 15.6677 29.9268 15.6642 30.0125 15.6624C30.0125 15.6598 30.0134 15.6572 30.0143 15.6545Z" fill="#BED70F"/>
<path d="M26.1703 23.2443C24.6102 26.4617 22.7018 29.4655 20.5765 32.3347C20.1722 32.8807 19.7592 33.4197 19.3506 33.9622C19.3891 34.0523 19.4267 34.1424 19.4652 34.2325C19.509 34.1879 19.5553 34.145 19.5973 34.0987C20.4111 33.1974 21.1995 32.276 21.9633 31.3319C23.9671 28.8548 25.6742 26.1869 27.132 23.3572C27.1801 23.2636 27.2203 23.1664 27.2676 23.0728L26.4678 22.5994C26.369 22.8147 26.2736 23.0308 26.1703 23.2443Z" fill="#BED70F"/>
<path d="M27.3725 15.9031C26.2552 16.0405 25.1623 16.2933 24.079 16.5943C24.0659 16.6678 24.0528 16.7413 24.0397 16.8148C23.8192 18.109 23.5129 19.383 23.1699 20.6473L25.472 22.0106C26.0592 20.5607 26.5763 19.0854 26.9858 17.5708C27.1354 17.0196 27.2815 16.4675 27.3725 15.9031Z" fill="#4CAF50"/>
<path d="M30.0125 15.6624C29.9267 15.6642 29.8296 15.6677 29.7272 15.6712C29.414 15.6895 29.1007 15.7079 28.7875 15.7263C28.6142 16.5689 28.3999 17.4019 28.1487 18.2244C27.6911 19.7224 27.1241 21.1793 26.4688 22.5994L27.2685 23.0728C27.9842 21.6579 28.6265 20.2115 29.1489 18.7144C29.4971 17.7152 29.7946 16.6993 30.0125 15.6624Z" fill="#4CAF50"/>
</svg>
