<svg width="93" height="42" viewBox="0 0 93 42" fill="none" xmlns="http://www.w3.org/2000/svg">
<path d="M0.701471 26.6001C0.233824 24.7626 0 22.9251 0 21C0 12.425 4.83236 4.55003 12.003 1.40002L12.9382 4.11253C6.78089 6.82503 2.57206 13.5625 2.57206 21C2.57206 22.6625 2.72794 24.2376 3.11765 25.8126L0.701471 26.6001Z" fill="#69D3A7"/>
<path d="M33.1251 12.6875C30.3192 6.65001 24.7854 2.8875 18.7839 2.8875C16.6795 2.8875 14.575 3.325 12.6265 4.28751L11.6133 1.575C13.8736 0.525001 16.2898 0 18.7839 0C25.7986 0 32.1898 4.375 35.4633 11.2875L33.1251 12.6875Z" fill="url(#paint0_linear_10_99)"/>
<path d="M13.1721 16.6251C14.6529 16.6251 15.9 17.5001 16.5235 19.0751L16.6015 19.1626L19.1735 18.2001L19.0956 18.0251C18.0824 15.3126 15.8221 13.6501 13.1721 13.6501C11.3015 13.6501 9.74265 14.3501 8.49559 15.7501C7.24853 17.1501 6.625 18.9001 6.625 20.9126C6.625 22.9251 7.24853 24.6751 8.49559 26.0751C9.74265 27.4751 11.3015 28.1751 13.1721 28.1751C15.8221 28.1751 18.0824 26.5126 19.0956 23.8001L19.1735 23.6251L16.6015 22.6626L16.5235 22.7501C15.978 24.3251 14.7309 25.2001 13.1721 25.2001C12.0809 25.2001 11.2235 24.7626 10.5221 23.9751C9.82059 23.1876 9.43089 22.1376 9.43089 20.9126C9.43089 19.6876 9.82059 18.6376 10.5221 17.7626C11.2235 17.0626 12.0809 16.6251 13.1721 16.6251Z" fill="white"/>
<path d="M44.5046 15.8376C43.3355 14.4376 41.8546 13.7375 40.1399 13.7375C38.4252 13.7375 37.0222 14.4375 35.9311 15.7501V14H33.2031V33.2501H35.9311V26.1626C37.0222 27.4751 38.4252 28.1751 40.1399 28.1751C41.8546 28.1751 43.3355 27.4751 44.5046 26.0751C45.6737 24.6751 46.2193 23.0126 46.2193 21.0001C46.2193 18.9876 45.6737 17.2376 44.5046 15.8376ZM42.3223 24.0626C41.6208 24.8501 40.7634 25.2876 39.6723 25.2876C38.5811 25.2876 37.7237 24.8501 37.0222 24.0626C36.3208 23.2751 35.9311 22.2251 35.9311 21.0001C35.9311 19.7751 36.3208 18.7251 37.0222 17.8501C37.7237 17.0626 38.5811 16.6251 39.6723 16.6251C40.7634 16.6251 41.6208 17.0626 42.3223 17.8501C43.0237 18.6376 43.3355 19.6876 43.3355 21.0001C43.4134 22.2251 43.0237 23.2751 42.3223 24.0626Z" fill="white"/>
<path d="M50.6618 15.75V14.0875H47.9338V27.9125H50.6618V20.125C50.6618 18.9 51.1294 17.9375 51.9868 17.2375C52.8441 16.625 53.9353 16.45 55.1824 16.8875L55.3383 16.975V14C53.5456 13.475 51.8309 14.175 50.6618 15.75Z" fill="white"/>
<path d="M62.5868 13.8251C60.7942 13.8251 59.2353 14.5251 57.9883 15.9251C56.7412 17.2376 56.1177 18.9876 56.1177 21.0001C56.1177 23.0126 56.7412 24.7626 57.9883 26.1626C59.2353 27.5626 60.7942 28.2627 62.6647 28.2627C65.2368 28.2627 67.4192 26.7751 68.5103 24.4126L68.5883 24.2376L66.25 23.1001L66.1721 23.1876C65.4706 24.6751 64.2236 25.5501 62.7427 25.5501C60.7942 25.5501 59.3133 24.2376 58.9236 22.1376H68.9V21.9626C69.1339 19.6876 68.5883 17.7626 67.3412 16.1876C66.1721 14.6126 64.5353 13.8251 62.5868 13.8251ZM59.0015 19.6001C59.4691 17.6751 60.8721 16.5376 62.5089 16.5376C64.2236 16.5376 65.6265 17.7626 66.0942 19.6001H59.0015Z" fill="white"/>
<path d="M76.2265 19.6876C74.7456 19.3376 73.4206 19.0751 73.4206 17.9376C73.4206 16.9751 74.278 16.3626 75.525 16.3626C76.928 16.3626 77.7074 17.0626 77.8633 18.3751V18.5501L80.5912 17.9376V17.7626C80.2015 15.3126 78.253 13.8251 75.525 13.8251C74.1221 13.8251 72.953 14.2626 72.0177 15.0501C71.0824 15.8376 70.6147 16.8876 70.6147 18.1126C70.6147 19.9501 71.628 21.2626 73.3427 21.7001C73.8103 21.7876 74.278 21.8751 74.7456 21.9626C76.4603 22.3126 78.0192 22.6626 78.0192 23.8876C78.0192 24.8501 77.0059 25.5501 75.525 25.5501C74.0442 25.5501 73.1868 24.8501 73.0309 23.5376V23.3626L70.303 23.9751V24.1501C70.6927 26.6001 72.6412 28.0877 75.603 28.0877C77.0839 28.0877 78.3309 27.6502 79.3442 26.8626C80.3574 26.0751 80.903 25.0251 80.903 23.8001C80.8251 20.6501 78.3309 20.1251 76.2265 19.6876Z" fill="white"/>
<path d="M88.1516 19.6876C86.6707 19.3376 85.3457 19.0751 85.3457 17.9376C85.3457 16.9751 86.203 16.3626 87.4501 16.3626C88.853 16.3626 89.6324 17.0626 89.7883 18.3751V18.5501L92.5163 17.9376V17.7626C92.1266 15.3126 90.178 13.8251 87.4501 13.8251C86.0471 13.8251 84.878 14.2626 83.9427 15.0501C83.0074 15.8376 82.5398 16.8876 82.5398 18.1126C82.5398 19.9501 83.553 21.2626 85.2677 21.7001C85.7354 21.7876 86.203 21.8751 86.6707 21.9626C88.3854 22.3126 89.9442 22.6626 89.9442 23.8876C89.9442 24.8501 88.931 25.5501 87.4501 25.5501C85.9692 25.5501 85.1119 24.8501 84.956 23.5376V23.3626L82.228 23.9751V24.1501C82.6177 26.6001 84.5663 28.0877 87.528 28.0877C89.0089 28.0877 90.256 27.6502 91.2692 26.8626C92.2824 26.0751 92.828 25.0251 92.828 23.8001C92.7501 20.6501 90.178 20.1251 88.1516 19.6876Z" fill="white"/>
<path d="M29.0721 14.0875L25.4868 24.4125L21.8236 14.0875H18.8618L24.0059 28.175L20.2648 37.9751L22.8368 38.5876L31.8001 14.0875H29.0721Z" fill="white"/>
<path d="M20.7325 36.75L20.109 38.5C19.9531 38.85 19.7193 39.1125 19.4075 39.1125C19.1737 39.1125 18.9399 39.1125 18.784 39.1125C11.3016 39.1125 4.6766 33.1625 3.03984 25.025L0.467773 25.6375C1.40307 30.1875 3.66337 34.3875 6.9369 37.3625C10.2884 40.3375 14.4193 42 18.706 42C18.9399 42 19.1737 42 19.4854 42C20.8104 41.9125 22.0575 41.0375 22.5252 39.6375L23.3825 37.3625L20.7325 36.75Z" fill="url(#paint1_linear_10_99)"/>
<defs>
<linearGradient id="paint0_linear_10_99" x1="16.8099" y1="-1.36369" x2="32.8079" y2="13.8671" gradientUnits="userSpaceOnUse">
<stop offset="0.0939" stop-color="#58D09E"/>
<stop offset="0.9883" stop-color="#58D09E" stop-opacity="0"/>
</linearGradient>
<linearGradient id="paint1_linear_10_99" x1="-0.198702" y1="30.5519" x2="27.3753" y2="37.0894" gradientUnits="userSpaceOnUse">
<stop offset="0.0774" stop-color="#58D09E"/>
<stop offset="0.7617" stop-color="white"/>
</linearGradient>
</defs>
</svg>
