<svg width="106" height="42" viewBox="0 0 106 42" fill="none" xmlns="http://www.w3.org/2000/svg">
<path d="M5.80025 0.00681368C4.87743 0.0849454 4.07181 0.832903 5.22297 2.08525C7.43418 3.34432 3.04221 4.27084 4.32449 5.11321C4.7334 6.00038 4.29175 6.98882 3.09614 7.14789C1.34495 7.30023 1.51093 9.71101 3.21767 8.44746C5.1222 7.83809 3.54689 8.6884 2.64907 8.86314C0.633425 9.45459 -0.740074 11.4844 0.431089 13.3394C1.55114 15.8934 1.84959 18.7424 2.71852 21.3994C4.15636 25.4858 6.25715 29.3741 8.98616 32.7324C10.2818 34.6366 12.1759 35.9898 13.956 37.4012C15.7072 38.546 17.6573 39.6913 19.6507 40.276C23.1908 41.5821 26.99 41.7043 30.7102 42C32.977 41.9955 35.2521 41.8344 37.49 41.4312C39.5034 41.6507 40.9523 39.9154 42.7724 40.8317C43.8746 39.846 45.481 40.2753 46.5833 39.5584C47.3989 36.7624 43.7823 39.0041 42.6378 37.6375C41.3933 39.1116 40.3489 37.4757 38.8399 37.935C36.2709 38.065 39.0346 36.7748 38.9701 35.5897C37.6078 34.5367 36.0694 37.0354 35.1983 37.7075C33.047 37.3154 30.9171 36.699 28.9436 35.7603C26.6946 34.5797 24.4873 33.175 22.8583 31.1834C21.1538 29.1491 19.2696 27.0921 18.4918 24.4799C16.8473 20.1672 16.9543 15.4978 16.5342 10.9678C16.6898 7.90081 19.9024 11.2979 21.2914 10.189C20.8158 8.59833 18.2815 8.09481 16.8815 7.45856C15.5303 7.36446 15.0379 6.1438 13.6001 6.04522C13.669 4.34257 10.9582 5.27945 9.97144 4.06742C10.9426 1.54032 6.75401 4.12742 7.08069 1.94086C7.76294 0.519361 6.72307 -0.0713181 5.80025 0.00681368ZM5.81327 0.221221C6.03231 0.166124 6.28423 0.210439 6.53813 0.41375C7.74263 2.0492 4.32272 0.226192 5.50944 1.78771C4.78774 1.44662 5.15616 0.386517 5.81327 0.221221ZM93.1479 1.03072C92.999 1.03072 92.6092 1.23536 91.9803 1.65206C91.2025 2.15838 90.3814 2.55761 89.5236 2.84662C88.9858 3.03256 88.7206 3.29167 88.7206 3.62548C88.7206 3.85624 88.9071 4.03599 89.2848 4.16369C90.0871 4.43029 90.6137 4.79802 90.8648 5.27073C91.0492 5.64039 91.1426 6.29649 91.1426 7.24415V22.3796C91.1426 23.7058 90.8253 24.4498 90.1963 24.6111C89.4963 24.7948 89.146 25.0666 89.146 25.425C89.146 25.5751 89.1585 25.6944 89.1807 25.7751C89.2362 26.0058 89.6095 26.0915 90.2962 26.0332C93.023 25.8137 94.9592 25.7595 96.1037 25.8626C96.4704 25.8984 96.6942 25.8815 96.7808 25.8188C96.8675 25.7561 96.9111 25.591 96.9111 25.3244C96.9111 24.9883 96.6415 24.7856 96.1037 24.7162C95.2326 24.6243 94.677 24.4968 94.437 24.3355C94.0947 24.1047 93.908 23.6221 93.8857 22.8828C93.8635 22.1434 93.8554 21.5771 93.8554 21.185C93.8554 20.6316 94.1249 20.2031 94.6627 19.9029C95.1427 19.5557 95.4785 19.3822 95.674 19.3822C95.834 19.3822 95.9668 19.4786 96.069 19.6623C97.3291 21.8107 98.8653 23.865 100.674 25.8276C100.948 26.1166 101.408 26.1959 102.05 26.0682C103.346 25.9652 104.39 25.9088 105.193 25.8976C105.73 25.8752 106 25.6576 106 25.2544C106 24.9317 105.936 24.7332 105.809 24.6593C105.682 24.5853 105.359 24.5455 104.832 24.5455C104.123 24.5455 103.358 24.1944 102.545 23.491C101.274 22.373 99.9222 20.7135 98.491 18.5202C98.1021 17.9086 97.9094 17.522 97.9094 17.3607C97.9094 17.2576 97.9528 17.172 98.0439 17.1025C99.2795 15.8569 100.445 14.9832 101.534 14.4859C102.314 14.1162 103.143 13.9113 104.025 13.8776C104.587 13.844 104.867 13.6309 104.867 13.2388C104.867 12.8221 104.689 12.6068 104.333 12.5956C103.247 12.5956 102.152 12.5893 101.052 12.5781C99.4718 12.5669 98.2694 12.5064 97.4449 12.3899C97.0782 12.3317 96.8749 12.5074 96.8416 12.9106C96.8194 13.3139 97.0102 13.5374 97.4102 13.5845C98.3369 13.7122 98.7992 13.9294 98.7992 14.2408C98.7992 14.4133 98.6624 14.6476 98.3868 14.9366C97.0001 16.1486 95.8352 17.1265 94.8841 17.877C94.5285 18.1772 94.2652 18.3277 94.0941 18.3277C93.9341 18.3277 93.851 18.1772 93.851 17.877L93.8206 7.0385C93.8206 5.61812 93.8269 4.48535 93.838 3.64299C93.8491 2.41976 93.8554 1.84708 93.8554 1.92773C93.8554 1.32732 93.6168 1.03072 93.1479 1.03072ZM53.9317 1.15324C53.7495 1.15324 53.3119 1.35788 52.6252 1.77458C51.7896 2.30554 50.9811 2.69847 50.2033 2.95163C49.6877 3.12414 49.4307 3.38762 49.4307 3.73487C49.4307 3.96563 49.609 4.141 49.9645 4.2687C50.6401 4.51066 51.1106 4.8535 51.3795 5.29261C51.6484 5.73171 51.7875 6.41932 51.7875 7.35354V23.0228C51.7875 23.9682 51.4745 24.5388 50.85 24.7293C50.2255 24.9197 49.9168 25.1516 49.9168 25.4294C49.9168 25.7408 49.9685 25.9331 50.0774 26.0026C50.1863 26.0698 50.4766 26.0803 50.9455 26.0332C53.2834 25.8361 55.2381 25.8175 56.8181 25.9676C57.3337 26.0236 57.5907 25.8209 57.5907 25.3594C57.5907 25.0256 57.3359 24.829 56.8181 24.773C55.9825 24.67 55.3917 24.4567 55.0472 24.1386C54.7028 23.8204 54.5307 23.3106 54.5307 22.6071L54.4656 7.14351C54.4523 6.03678 54.4626 4.90808 54.496 3.7655C54.5426 2.56468 54.5654 1.9857 54.5654 2.03274C54.5654 1.44353 54.3562 1.15324 53.9317 1.15324ZM31.0878 2.97351C30.9612 2.99591 30.8722 3.11714 30.8144 3.33669C30.701 3.69514 30.8731 3.97722 31.3309 4.18557C32.062 4.52162 32.5638 4.89575 32.8327 5.30573C33.1016 5.71572 33.2364 6.30303 33.2364 7.06475V21.8895C33.2364 23.749 32.6745 24.7416 31.5523 24.8693C31.0611 24.9163 30.8144 25.0854 30.8144 25.3856C30.8144 25.8606 31.0589 26.0633 31.5523 25.9938C33.3146 25.7519 35.5535 25.7437 38.267 25.9632C39.2048 26.0439 39.7086 25.8934 39.7774 25.5125C39.8463 25.0757 39.5996 24.8269 39.0396 24.7687C37.9417 24.6298 37.2265 24.473 36.8954 24.3005C36.4709 24.0921 36.2573 23.697 36.2573 23.119V15.3304C36.2573 15.1825 36.3588 15.1028 36.5655 15.1028C38.3856 15.1028 39.7043 15.153 40.511 15.2516C41.3177 15.3502 41.8713 16.1236 42.169 17.5663C42.2513 17.9472 42.448 18.1163 42.768 18.0827C43.1569 18.0603 43.3477 17.9015 43.3366 17.6013C43.2211 15.0854 43.3248 13.0415 43.6448 11.471C43.7026 11.1932 43.5346 11.0135 43.1457 10.9328C42.6879 10.8298 42.4227 11.0095 42.3427 11.471C42.216 12.3156 42.0875 12.8359 41.9564 13.0375C41.8252 13.2392 41.5659 13.3624 41.1881 13.4095C39.2525 13.5372 37.7765 13.6083 36.7565 13.6195C36.4254 13.6307 36.2617 13.5054 36.2617 13.2388V5.39325C36.2617 5.12665 36.3154 4.9532 36.4309 4.87254C36.6154 4.74485 37.0073 4.68439 37.6029 4.68439C40.203 4.68439 41.8239 4.73448 42.4772 4.83754C43.0839 4.91819 43.5733 5.15871 43.94 5.55077C44.2511 5.88458 44.5764 6.47179 44.9209 7.31416C45.0454 7.62557 45.2693 7.78236 45.5893 7.78236C45.9094 7.78236 46.0668 7.6026 46.0668 7.24415C46.1112 5.42052 46.2315 4.12273 46.427 3.34982C46.4382 3.30277 46.4443 3.25929 46.4487 3.20104C46.4487 3.02854 46.0652 2.96147 45.2985 3.00851C42.9962 3.14742 40.2639 3.21855 37.1037 3.21855C34.4236 3.21855 32.7216 3.16002 31.9993 3.04352C31.506 2.96287 31.2034 2.9399 31.0878 2.97351ZM8.42623 3.38482C8.73292 3.45035 8.83879 3.63486 7.99653 3.748L7.65797 3.7305C7.61353 3.37316 8.11955 3.31929 8.42623 3.38482ZM8.08768 4.57938C8.69659 4.84822 9.94495 4.97269 10.1494 5.64704C8.90268 4.99286 10.3975 6.43528 9.35075 6.4084C8.78629 6.41512 7.741 5.19323 8.08768 4.57938ZM7.77516 5.59453C9.18634 6.67661 6.98878 5.59393 6.0954 6.27276C4.68867 6.41614 7.63738 5.47355 7.77516 5.59453ZM11.5036 6.24213C11.6837 6.29225 11.6837 6.46395 11.3864 6.82409C12.4798 8.14141 11.6318 7.69705 10.8873 6.76283C11.5406 7.21762 11.0367 9.18141 10.0322 7.83049C9.32107 6.49525 8.87084 7.39775 9.6242 8.31181C8.88417 6.90712 6.74196 7.50722 5.17522 8.0449C4.16407 7.93288 7.80284 7.17397 8.19619 6.99474C8.80455 7.0065 10.9634 6.09174 11.5036 6.24213ZM15.8875 7.72985C16.3344 7.72404 16.7752 7.74102 17.2113 7.77798C17.9114 8.60018 16.6814 9.9921 15.4014 10.084C13.8457 10.6709 12.2623 10.8145 10.8178 11.0072C8.96442 10.772 7.63353 12.4528 5.71344 12.6656C6.22457 11.7112 5.29353 12.3363 4.32015 12.2893C4.81573 14.216 0.89111 11.7773 3.20899 11.3135C1.47114 10.6907 1.44683 12.5316 1.62906 13.5801H1.51187C-0.0793153 11.5145 1.69038 10.6721 3.7038 10.4078C3.32156 11.3599 4.25358 11.6661 5.14918 11.8386C6.60036 11.4353 4.19459 11.1759 5.29242 10.7928C5.89466 10.6808 3.3724 10.1847 5.47472 9.90018C7.63037 9.535 9.56976 8.68112 11.7076 8.23305C13.1544 7.94405 14.5467 7.74728 15.8875 7.72985ZM15.4101 8.21992C15.2198 8.16027 14.7773 8.28024 14.5506 8.88065C14.7151 9.25926 14.7967 8.76993 14.7633 8.63999C15.54 8.52013 15.6003 8.27957 15.4101 8.21992ZM10.9263 9.02504C10.3044 8.9962 9.2854 9.13188 8.92539 9.56763C9.38319 9.77822 9.88658 8.98489 10.5444 9.48449C11.7722 9.24925 11.5483 9.05389 10.9263 9.02504ZM19.8069 9.13881C20.1178 9.08764 21.0804 9.45001 20.7401 10.0577C20.5068 10.1249 20.5467 9.77027 20.3755 9.71202C19.6705 9.34993 19.6204 9.16951 19.8069 9.13881ZM7.74912 9.97894C7.58658 9.97876 7.4565 10.053 7.44095 10.2546L7.75346 10.5434C9.00185 10.6459 8.23675 9.97946 7.74912 9.97894ZM7.05031 10.5565C6.81856 10.5224 6.60383 10.6518 6.48604 11.0904C6.70383 11.0366 7.04975 11.1632 7.25865 11.3223C8.57537 12.2296 7.74554 10.6589 7.05031 10.5565ZM15.5186 10.7709C16.6742 10.5429 16.337 13.5586 15.9656 14.4859C16.6657 14.0042 16.5309 16.7243 16.3042 17.737C16.6864 17.2195 16.8437 18.5744 16.417 19.531C16.4526 19.3742 17.3417 19.2375 16.6861 20.3711C16.1861 19.2599 15.9689 22.6316 16.2912 21.1194C17.1734 19.69 16.9424 21.0433 17.2113 21.6751C17.3847 22.9857 17.9646 24.1945 18.1402 25.355C18.9558 26.1839 17.7929 25.6219 17.7973 26.7421C18.0618 26.4172 19.1408 27.1983 19.1342 28.3611C19.2231 26.5173 19.3281 27.9298 20.2193 28.4092C20.9638 29.619 21.5214 30.7509 22.6326 31.7478C23.4993 32.7582 22.5782 32.0484 22.9538 32.6667C23.8738 34.3111 26.0053 35.2645 27.8498 35.6947C28.6588 36.7566 29.873 37.8128 31.5175 37.3312C30.1264 38.1959 35.4357 38.4311 33.64 38.9195C32.7066 39.4303 31.821 38.5903 30.9099 38.6351C29.6431 38.196 27.6408 36.8503 26.2829 37.7644C24.4051 38.9495 27.2453 36.4429 25.723 37.5631C24.1807 39.4293 24.6753 36.402 23.1708 37.3093C23.0841 37.0203 21.8335 36.9406 22.7802 36.4298C21.9312 36.376 22.4605 36.3211 22.7671 35.6378C22.4027 35.5616 20.3768 35.6338 19.5812 34.9639C18.6434 33.734 19.745 34.2334 20.7228 34.4126C19.1538 34.6904 21.2625 35.5993 22.3114 35.0952C21.8403 34.8936 21.3011 33.867 20.0544 32.9686C18.3121 31.9112 16.8782 31.4066 15.0715 30.562C13.1159 29.3926 15.5092 30.1472 16.187 30.7633C18.1382 31.6303 17.3702 29.5465 16.2391 29.0043C14.999 29.0558 14.6803 27.6197 13.6869 27.7003C15.2558 27.9535 16.3451 27.2913 14.5984 25.7007C12.9383 23.7471 15.2916 27.1747 14.3249 26.7333C13.8849 26.1486 14.2146 25.3074 12.8101 25.0049C12.7946 25.5449 12.6176 26.3815 12.311 25.2456C11.9198 25.3128 11.4721 25.7456 11.152 24.5761C11.4543 23.2476 9.84706 22.9442 9.59816 22.0951C10.9871 22.989 11.6157 22.2843 10.6312 21.3075C9.95339 20.1134 9.85876 21.0498 9.48097 21.2156C8.11869 22.6181 9.35624 18.7963 8.75177 19.8986C8.14285 19.8806 8.49325 20.5741 8.50436 21.4344C6.51316 20.9371 8.98786 22.4908 9.56344 23.3466C8.65451 22.3877 8.80865 24.0654 8.04861 23.2678C7.79082 22.5621 7.75489 21.4478 6.49039 21.2506C7.92823 20.7488 5.63517 19.7292 5.82629 19.6754C6.64855 18.9204 6.75363 17.8827 7.74478 19.5047C6.48917 19.4017 7.70933 21.5941 8.01823 20.94C7.96934 19.8176 8.53148 18.6396 6.63362 18.122C6.07582 18.8793 5.11435 16.6385 6.22996 17.1113C6.08328 15.6237 7.96028 16.5007 7.84027 15.8554C8.8092 15.4275 6.6673 14.046 7.82291 13.4926C8.70739 14.0348 11.0016 12.6395 9.45927 12.4468C10.4238 12.4378 11.1974 12.8637 11.2996 11.878C12.0797 12.0482 14.1898 12.7256 12.2719 11.6592C12.8853 11.3523 14.1816 11.0928 14.9283 11.0816C15.1585 10.901 15.3535 10.8035 15.5186 10.7709ZM81.3852 12.0224C79.9096 12.0224 78.73 12.3545 77.8477 13.0244C76.8966 13.7189 76.424 14.6863 76.424 15.9342C76.424 16.9491 76.7288 17.7579 77.3355 18.3583C77.8956 18.9229 79.0108 19.5812 80.682 20.3317C81.8376 20.8403 82.6172 21.2855 83.0172 21.6663C83.3839 22.0024 83.5684 22.416 83.5684 22.9134C83.5684 24.0448 82.7621 24.6111 81.1465 24.6111C79.233 24.6111 77.8461 23.8568 76.9883 22.3445C76.7927 22.0107 76.5564 21.8602 76.2808 21.8939C76.0052 21.9163 75.8685 22.2318 75.8685 22.8434C75.8685 24.2637 75.9162 25.0581 76.0073 25.2194C76.1562 25.3919 76.6953 25.5798 77.622 25.7882C78.6976 26.0189 79.7757 26.1382 80.8513 26.1382C82.4669 26.1382 83.7419 25.7745 84.6753 25.0531C85.6086 24.3317 86.0729 23.3621 86.0729 22.1389C86.0729 21.0322 85.7308 20.1482 85.0485 19.4829C84.5219 18.9765 83.5247 18.4016 82.058 17.7676C80.6601 17.156 79.7751 16.7045 79.3973 16.4155C78.9728 16.0795 78.7592 15.6346 78.7592 15.0678C78.7592 14.053 79.5428 13.5451 81.1117 13.5451C82.4985 13.5451 83.6449 14.2869 84.5494 15.7767C84.6761 15.985 84.9268 16.0499 85.3046 15.9692C85.658 15.8774 85.8198 15.7561 85.7864 15.606C85.4998 14.3828 85.3089 13.4487 85.2178 12.8012C85.1823 12.5817 84.7532 12.3956 83.9287 12.2455C83.162 12.0977 82.3119 12.0224 81.3852 12.0224ZM67.0877 12.0924C65.7365 12.0924 64.3311 12.4834 62.8644 13.2563C61.4666 13.9956 60.768 14.6414 60.768 15.1947C60.768 16.0819 61.2386 16.4811 62.1786 16.3893C63.0031 16.3198 63.6354 15.8391 64.0754 14.9497C64.5154 14.0603 64.984 13.6151 65.4774 13.6151C67.2063 13.6151 68.0334 14.5662 67.9645 16.4593L67.9341 17.5663C67.923 18.0502 67.5269 18.3701 66.7491 18.5202C62.2134 19.3872 59.9476 20.8166 59.9476 22.8127C59.9476 23.8635 60.2896 24.6953 60.9763 25.3069C61.6052 25.8602 62.3888 26.1382 63.3288 26.1382C64.3244 26.1382 65.3176 25.9021 66.3021 25.4294C67.2865 24.9567 67.8318 24.7162 67.9341 24.7162C68.0719 24.7162 68.3101 24.9378 68.6546 25.3769C68.9968 25.816 69.3929 26.0332 69.8395 26.0332C70.3662 26.0332 71.0691 25.7887 71.9447 25.2981C72.8203 24.8075 73.2598 24.4418 73.2598 24.1998C73.2598 23.7495 73.0919 23.5238 72.7563 23.5216C72.6986 23.5216 72.4956 23.5509 72.14 23.6091C71.7844 23.6674 71.5461 23.6966 71.4195 23.6966C70.7794 23.6966 70.4621 23.3226 70.4733 22.5721L70.5427 15.4354C70.5649 13.2062 69.4122 12.0924 67.0877 12.0924ZM15.3927 12.6218C15.1005 12.7063 14.6436 14.272 14.9586 14.8315C15.652 15.945 16.3458 12.0949 15.7747 13.3876C15.468 15.0342 15.1544 14.3461 15.5967 13.1207C15.57 12.7269 15.4901 12.5937 15.3927 12.6218ZM5.63531 14.0789C5.74577 14.0739 5.93974 14.0828 6.23864 14.1139C7.78093 14.0602 7.28573 14.9767 6.40792 15.0372C6.38792 15.0954 5.60378 14.8476 5.93046 14.6303C8.04611 14.9008 4.86212 14.1139 5.63531 14.0789ZM9.52003 14.6215C9.64865 14.9122 9.86678 15.4592 9.70233 15.7023C10.1357 16.1347 11.6161 16.9041 10.4272 15.8467C11.185 15.6944 10.3271 15.4526 9.87595 15.0897C9.3526 14.2977 9.39142 14.3308 9.52003 14.6215ZM4.48943 14.6609C4.83944 14.6472 5.19873 14.8283 4.51981 15.2472C3.79867 14.8832 4.13941 14.6746 4.48943 14.6609ZM14.3553 15.6804C14.3329 15.6482 14.3211 15.6767 14.3466 15.8336C14.6083 16.425 14.4227 15.777 14.3553 15.6804ZM9.09901 16.2711C9.30346 16.5691 9.85689 16.4372 10.1147 16.7262C12.4437 17.6985 9.90571 16.0964 9.09901 16.2711ZM8.73441 16.4549C8.61983 16.4812 8.64041 16.6346 8.89501 16.9887C9.05501 17.3539 9.44086 17.3849 9.7631 17.4701C12.2621 18.6314 9.23091 16.3412 8.73441 16.4549ZM4.433 16.6518C4.81274 16.7143 5.26946 16.9206 4.76722 17.12L4.56322 17.0412C3.75096 16.6682 4.05326 16.5894 4.433 16.6518ZM7.96615 16.9581C7.85236 16.9641 7.94996 17.1363 8.47832 17.6101L8.82122 17.9645C10.5546 18.4434 8.30751 16.9402 7.96615 16.9581ZM7.73176 17.4263C7.64228 17.4235 8.44634 18.2903 8.07466 18.2752C6.78793 17.3275 7.31323 17.9978 8.03993 18.7259C8.82886 19.9065 9.48069 18.0226 8.19619 17.7851C7.89062 17.5264 7.76159 17.4273 7.73176 17.4263ZM13.1921 18.6602C13.1757 18.7143 13.1729 18.8971 13.2051 19.2947C13.4201 19.4913 13.2411 18.498 13.1921 18.6602ZM14.3293 18.7609C14.0521 18.7626 13.8439 20.7437 14.5289 21.1587C14.8112 21.9765 15.1125 21.6399 15.2147 20.7124C14.5525 20.7259 15.4873 19.2595 14.5984 19.5485C14.5206 18.9778 14.4217 18.7603 14.3293 18.7609ZM16.2434 18.8046C16.1937 18.6935 16.0741 18.9365 16.0307 19.7498V19.9817C16.2707 19.3802 16.2931 18.9158 16.2434 18.8046ZM3.26542 18.8703C3.44105 18.8276 4.44213 20.8715 4.30713 21.4344C3.69377 21.2193 3.72349 20.2518 3.43903 19.741C3.2418 19.1311 3.20687 18.8845 3.26542 18.8703ZM10.5791 18.9709C10.4169 19.4257 10.9235 20.9171 11.2302 21.4257C12.0124 22.6377 11.6615 20.7628 12.5193 21.9726C12.0482 20.9107 12.7408 21.4888 12.6408 21.0362C12.423 20.5792 10.3135 18.1602 11.2736 19.9861C12.1425 22.1637 10.728 19.7125 10.5791 18.9709ZM2.85307 19.3253C3.08791 19.4779 3.71735 20.5103 3.83402 21.0844C4.82295 22.2852 4.43286 22.9467 5.45735 24.4186C4.13952 23.5807 3.89055 21.5807 3.05273 20.288C2.71022 19.4588 2.71217 19.2338 2.85307 19.3253ZM67.4957 19.5966C67.6087 19.6053 67.698 19.6338 67.7691 19.6798C67.9136 19.7716 67.9799 19.9596 67.9688 20.2486L67.9341 23.0928C67.9341 23.4512 67.5796 23.7585 66.8707 24.0117C66.264 24.2312 65.6731 24.3398 65.0997 24.3398C63.6686 24.3398 62.9512 23.6774 62.9512 22.3489C62.9512 21.0316 64.3319 20.1246 67.092 19.6273C67.2465 19.5981 67.3826 19.588 67.4957 19.5966ZM10.1277 23.0884C10.6578 23.2561 10.3374 25.004 11.1347 25.2412C12.9148 27.5824 9.90172 25.31 8.89501 25.0837C9.0239 25.077 8.00135 24.7907 8.4436 24.6899C8.12136 24.3561 7.40018 23.1438 9.04692 23.9548C10.3559 24.6157 10.4657 24.1698 9.84123 23.119C9.95734 23.0695 10.052 23.0644 10.1277 23.0884ZM4.12049 23.4297C4.16455 23.2062 5.07098 24.6761 5.23599 25.2894C5.73379 26.8867 7.29184 27.8068 7.44963 28.8643C9.17637 29.8679 8.29022 31.5051 9.7414 31.9666C10.3859 31.6373 10.4493 33.9381 11.8205 33.4587C11.0582 33.8194 12.1414 34.2459 12.5236 34.9158C13.3881 34.7971 15.2828 36.8357 13.3961 36.1322C12.6005 35.962 12.0572 35.1277 11.4949 34.5833C9.82598 33.5146 8.74285 31.7267 7.82725 30.0151C6.6472 28.2161 5.22668 26.4173 4.41998 24.3136C4.1833 23.7675 4.1058 23.5042 4.12049 23.4297ZM17.3806 24.7818C17.2927 24.8272 17.2881 25.0931 17.5456 25.6744L17.6975 25.9238C17.9072 25.2363 17.5272 24.7061 17.3806 24.7818ZM11.3778 26.8383C11.8689 26.9462 12.6078 27.2122 12.9056 27.2715C12.9878 27.6277 11.2222 27.5724 12.7667 28.2692C11.8667 28.2445 11.5951 28.1762 12.8796 28.9693C12.3751 29.377 13.8966 29.701 13.3744 30.3126C14.9233 31.5314 13.0947 30.6218 12.4325 30.1245C12.0414 29.8511 10.4474 29.308 10.6963 28.9518C12.5764 29.9465 11.1736 28.9082 10.3447 28.2473C11.8603 28.6214 9.13026 27.1157 10.5748 27.5122C11.0037 27.6175 9.92529 26.6201 11.3387 27.3459C10.6431 26.7791 10.8866 26.7305 11.3778 26.8383ZM20.8053 30.6583C20.6116 30.5894 20.8033 31.345 21.235 31.8003C22.155 32.9048 21.4551 31.1733 21.1351 31.0434C20.9796 30.7964 20.8698 30.6813 20.8053 30.6583ZM12.6886 31.7435C13.2008 31.7491 14.0383 31.982 14.555 32.2598C16.8217 32.7683 14.0727 33.3811 13.166 32.6798L12.7841 32.5967C11.9918 31.9627 12.1763 31.7379 12.6886 31.7435ZM15.397 31.9841C15.5856 31.9436 16.4424 32.2988 16.8077 32.6405C17.8944 32.7883 17.8992 33.2888 16.6992 32.9774C16.4858 32.8452 16.1419 32.8526 16.0307 32.5748C15.4124 32.1766 15.2839 32.0085 15.397 31.9841ZM16.8424 32.0016C17.1852 31.9957 17.7465 32.0939 17.9232 32.356C20.3033 32.7414 17.7726 32.9091 17.0681 32.2773C16.3759 32.1171 16.4996 32.0075 16.8424 32.0016ZM16.8424 33.3537C17.0997 33.2964 18.78 33.9957 17.5716 33.8394L17.22 33.7256C16.8295 33.4786 16.7566 33.3728 16.8424 33.3537ZM24.8506 33.7606C24.9256 33.7872 25.0018 33.8564 25.0546 33.9925C24.4295 33.9825 24.6256 33.6809 24.8506 33.7606ZM16.8511 34.417C17.3393 34.4646 19.2176 35.499 17.5542 35.0252L17.2982 34.9246L17.0073 34.7889C16.6779 34.4938 16.6883 34.4011 16.8511 34.417ZM20.8921 37.143C21.1177 37.1068 22.9706 37.2763 21.3956 37.2612C20.9216 37.1884 20.8169 37.1551 20.8921 37.143ZM15.9656 37.4187C16.099 37.4487 16.3105 37.5145 16.621 37.6287C18.61 38.8676 20.903 39.5229 23.0276 40.4773C24.8943 40.7237 26.8627 41.2217 28.7006 40.8229C30.234 41.5959 31.8244 40.6228 33.3622 41.3218C29.9643 41.9894 26.4686 41.2585 23.084 40.7836C20.9506 40.5125 19.0452 39.6199 17.0985 38.7708C16.8163 38.6363 16.5493 38.4681 16.2781 38.3113C14.9403 37.5631 15.1061 37.4102 16.4084 38.145C16.8684 38.5147 20.132 39.8615 18.5786 38.972C17.9913 38.825 15.0318 37.2083 15.9656 37.4187ZM28.336 38.0138C28.4882 38.1124 28.4934 38.4342 28.4879 38.8408C27.4656 39.9789 28.0752 38.3756 27.4418 38.9939C26.8574 39.4644 26.996 38.7137 27.3116 38.5345C27.8839 38.0405 28.1837 37.9152 28.336 38.0138ZM36.8563 38.377C37.7689 38.4562 38.8127 38.6687 39.4172 38.6833C39.0505 39.4606 36.7842 38.7463 35.7886 38.9502L35.3588 38.9239L35.0941 38.8802C35.1641 38.3514 35.9438 38.2977 36.8563 38.377ZM44.7039 38.6264C47.064 38.6241 44.8595 38.9722 43.775 38.9677C42.5439 38.6764 44.3328 38.6846 44.7039 38.6264ZM30.4888 38.937C30.6777 38.9155 30.7423 39.0656 30.2067 39.414L30.0114 39.4752C29.9847 39.1482 30.2999 38.9586 30.4888 38.937ZM29.5904 39.0771C29.6251 39.1312 29.5475 39.2861 29.2475 39.6065C28.3741 39.6636 29.4862 38.9147 29.5904 39.0771ZM21.0744 39.3221C21.2875 39.2681 23.5833 39.9356 23.8783 39.8734C26.2184 40.7494 22.4814 40.1584 21.7081 39.6678C21.1653 39.4365 21.0033 39.3401 21.0744 39.3221ZM32.3813 39.4359C32.3864 39.4946 32.2645 39.6324 31.9212 39.8822L31.6347 40.0703C31.228 39.7864 32.3661 39.2595 32.3813 39.4359Z" fill="white"/>
</svg>
