<svg width="42" height="42" viewBox="0 0 42 42" fill="none" xmlns="http://www.w3.org/2000/svg">
<path d="M41.1158 18.9L23.1 0.884211C22.5474 0.331579 21.7737 0 21 0C20.2263 0 19.4526 0.331579 18.9 0.884211L15.0316 4.75263L19.5632 9.28421C20.0053 9.06316 20.4474 8.95263 21 8.95263C22.8789 8.95263 24.3158 10.3895 24.3158 12.2684C24.3158 12.8211 24.2053 13.2632 23.9842 13.7053L28.4053 18.1263C28.8474 17.9053 29.2895 17.7947 29.8421 17.7947C31.7211 17.7947 33.1579 19.2316 33.1579 21.1105C33.1579 22.9895 31.7211 24.4263 29.8421 24.4263C27.9632 24.4263 26.5263 22.9895 26.5263 21.1105C26.5263 20.5579 26.6368 20.1158 26.8579 19.6737L22.4368 15.2526C22.3263 15.2526 22.2158 15.3632 22.1053 15.3632V26.8579C23.4316 27.3 24.3158 28.5158 24.3158 29.9526C24.3158 31.8316 22.8789 33.2684 21 33.2684C19.1211 33.2684 17.6842 31.8316 17.6842 29.9526C17.6842 28.5158 18.5684 27.3 19.8947 26.8579V15.2526C18.5684 14.8105 17.6842 13.5947 17.6842 12.1579C17.6842 11.6053 17.7947 11.1632 18.0158 10.7211L13.4842 6.18947L0.884211 18.9C0.331579 19.4526 0 20.2263 0 21C0 21.7737 0.331579 22.5474 0.884211 23.1L18.9 41.1158C19.4526 41.6684 20.2263 42 21 42C21.7737 42 22.5474 41.6684 23.1 41.1158L41.1158 23.1C41.6684 22.5474 42 21.7737 42 21C42 20.2263 41.6684 19.4526 41.1158 18.9Z" fill="#F4511E"/>
</svg>
