<svg width="62" height="42" viewBox="0 0 62 42" fill="none" xmlns="http://www.w3.org/2000/svg">
<path d="M14.8683 38.2622H12.482C12.3976 34.2343 12.1652 30.4476 11.7852 26.8993H11.764L8.13089 38.2622H6.31408L2.70261 26.8993H2.68186C2.41395 30.3061 2.24518 34.0937 2.17509 38.2622H0C0.14018 33.1931 0.492474 28.4408 1.0555 24.0049H4.01311L7.45535 34.481H7.47656L10.94 24.0049H13.7699C14.3896 29.2008 14.7558 33.9535 14.8683 38.2622ZM25.2171 27.7432C24.2456 33.0156 22.9637 36.8465 21.3728 39.2379C20.1333 41.0787 18.7753 42 17.2965 42C16.9023 42 16.4158 41.881 15.8394 41.6449V40.3736C16.1211 40.4142 16.4517 40.4373 16.8317 40.4373C17.5225 40.4373 18.0776 40.2473 18.501 39.8664C19.0073 39.4025 19.2604 38.881 19.2604 38.3041C19.2604 37.9085 19.0631 37.0997 18.6693 35.875L16.0506 27.7427H18.3949L20.2744 33.8248C20.6968 35.2059 20.8729 36.1701 20.8024 36.7193C21.8302 33.9742 22.5482 30.9811 22.9572 27.7422H25.2171V27.7432Z" fill="#5D87A1"/>
<path d="M56.9811 38.2621H50.2027V24.0048H52.4829V36.5071H56.9811V38.2621ZM48.4283 38.6066L45.8073 37.3132C46.0397 37.1223 46.262 36.9157 46.4621 36.6763C47.5762 35.3677 48.1318 33.4324 48.1318 30.869C48.1318 26.1523 46.2809 23.7927 42.5776 23.7927C40.7618 23.7927 39.3452 24.3913 38.3321 25.5888C37.219 26.8983 36.6633 28.8267 36.6633 31.3763C36.6633 33.8824 37.1558 35.7209 38.1412 36.8871C39.0427 37.9435 40.4016 38.4724 42.2189 38.4724C42.8967 38.4724 43.5188 38.3894 44.0855 38.222L47.4978 40.2085L48.4283 38.6066ZM39.9377 35.4092C39.3604 34.4805 39.0718 32.9893 39.0718 30.9331C39.0718 27.3433 40.1623 25.5464 42.3457 25.5464C43.487 25.5464 44.3234 25.9761 44.8583 26.8338C45.4347 27.7639 45.7248 29.2417 45.7248 31.2693C45.7248 34.8886 44.6333 36.6985 42.4513 36.6985C41.3096 36.6989 40.4731 36.2706 39.9377 35.4092ZM35.6696 34.3104C35.6696 35.5194 35.226 36.5113 34.3398 37.2883C33.4526 38.062 32.2629 38.4498 30.7721 38.4498C29.3777 38.4498 28.0257 38.0044 26.717 37.1181L27.3299 35.8938C28.4559 36.4578 29.4754 36.7381 30.3908 36.7381C31.2498 36.7381 31.9212 36.5477 32.4082 36.17C32.8946 35.791 33.1847 35.2593 33.1847 34.587C33.1847 33.74 32.594 33.016 31.5104 32.4096C30.5111 31.8609 28.5126 30.7136 28.5126 30.7136C27.4295 29.9242 26.8872 29.0767 26.8872 27.6804C26.8872 26.5248 27.2916 25.592 28.1009 24.8823C28.911 24.1699 29.9564 23.8149 31.2378 23.8149C32.5612 23.8149 33.7643 24.1695 34.8479 24.8713L34.2983 26.096C33.3714 25.7022 32.4566 25.5053 31.5542 25.5053C30.8233 25.5053 30.2589 25.681 29.8665 26.0338C29.4708 26.3851 29.2269 26.8347 29.2269 27.3862C29.2269 28.2291 29.83 28.9623 30.9432 29.5807C31.9558 30.1303 34.0041 31.2974 34.0041 31.2974C35.1149 32.0855 35.6696 32.9252 35.6696 34.3104Z" fill="#F8981D"/>
<path d="M59.8438 19.2295C58.4651 19.1945 57.3976 19.3333 56.5017 19.7123C56.243 19.8156 55.8317 19.8156 55.7957 20.1425C55.9354 20.2809 55.9515 20.5041 56.0728 20.695C56.2794 21.0394 56.6395 21.5028 56.9683 21.7445C57.3294 22.0211 57.6918 22.295 58.0718 22.5362C58.7418 22.9508 59.5012 23.1919 60.1542 23.6051C60.5346 23.8453 60.9127 24.1561 61.2936 24.4148C61.4808 24.5527 61.6007 24.7763 61.8437 24.8625V24.81C61.722 24.655 61.6874 24.4309 61.568 24.2585L61.0506 23.7596C60.5507 23.0882 59.9296 22.5021 59.2596 22.0207C58.7081 21.6407 57.5018 21.1243 57.2782 20.4888L57.2431 20.4538C57.6222 20.4183 58.0718 20.2809 58.4319 20.1753C59.018 20.0208 59.5524 20.0559 60.1537 19.9014C60.4304 19.8322 60.7048 19.7455 60.9823 19.6602V19.5048C60.6706 19.1945 60.4484 18.7823 60.1205 18.489C59.2435 17.7314 58.277 16.9904 57.2782 16.3701C56.7433 16.0248 56.0553 15.8025 55.4858 15.5088C55.2806 15.405 54.9348 15.3538 54.814 15.1814C54.505 14.8023 54.3312 14.3034 54.1071 13.8547C53.6091 12.9081 53.1254 11.8577 52.6956 10.8566C52.3848 10.1852 52.1957 9.51471 51.8167 8.89359C50.0414 5.96549 48.1135 4.19203 45.1503 2.45131C44.5135 2.08887 43.7559 1.9344 42.9467 1.74442L41.6541 1.67617C41.3784 1.55536 41.1022 1.22751 40.8615 1.07257C39.8784 0.452829 37.3473 -0.890406 36.6243 0.883052C36.1585 2.00403 37.3132 3.1061 37.7097 3.67466C38.0025 4.06937 38.382 4.5185 38.5868 4.96671C38.7081 5.25952 38.7422 5.57031 38.8635 5.87972C39.1392 6.6378 39.397 7.48118 39.7594 8.18854C39.9485 8.54913 40.1546 8.92817 40.3962 9.25464C40.5345 9.44554 40.7752 9.52993 40.8278 9.84118C40.5876 10.1843 40.5687 10.7021 40.4308 11.1328C39.8111 13.0792 40.0531 15.4903 40.9316 16.9207C41.2064 17.3514 41.8621 18.2995 42.7391 17.9361C43.5157 17.6262 43.3437 16.6445 43.5669 15.7836C43.618 15.5756 43.5844 15.4392 43.6877 15.3027V15.3363C43.9279 15.8182 44.1705 16.2825 44.3932 16.7658C44.9276 17.6092 45.8581 18.4881 46.6333 19.0723C47.046 19.384 47.3729 19.9171 47.8898 20.1075V20.0559H47.8557C47.751 19.9014 47.5979 19.8322 47.4605 19.7123C47.1497 19.402 46.8057 19.023 46.5646 18.679C45.8425 17.7138 45.2034 16.6454 44.6362 15.5429C44.3586 15.008 44.1193 14.4233 43.8956 13.8893C43.7914 13.6832 43.7914 13.3724 43.6185 13.2687C43.3594 13.6472 42.9817 13.9751 42.7926 14.439C42.4648 15.1809 42.4307 16.0935 42.3089 17.0425L42.2411 17.0757C41.6924 16.9378 41.5015 16.3701 41.2931 15.8883C40.7771 14.6645 40.6904 12.7001 41.1381 11.2882C41.258 10.9271 41.7768 9.79 41.5698 9.446C41.466 9.11631 41.1211 8.92863 40.932 8.66902C40.7098 8.34255 40.4663 7.92939 40.3114 7.56695C39.8982 6.60275 39.6902 5.53435 39.2453 4.57061C39.0373 4.12148 38.6762 3.65667 38.3839 3.24305C38.0556 2.77825 37.6945 2.45085 37.4349 1.89982C37.3491 1.7103 37.2288 1.40043 37.3667 1.19431C37.4003 1.05597 37.4704 1.00433 37.6078 0.969742C37.831 0.781145 38.4687 1.02093 38.6924 1.12468C39.331 1.3829 39.865 1.62407 40.3981 1.98558C40.6392 2.1585 40.8979 2.4859 41.2073 2.57212H41.5698C42.1199 2.69202 42.7401 2.60533 43.2579 2.76118C44.1705 3.05446 44.9972 3.48468 45.7387 3.94902C47.995 5.37987 49.8556 7.41294 51.1117 9.84118C51.3178 10.2368 51.4054 10.5993 51.5935 11.012C51.9564 11.8567 52.4051 12.7181 52.7652 13.5449C53.1272 14.3541 53.4721 15.1805 53.989 15.8528C54.2468 16.2143 55.2825 16.4038 55.7468 16.5933C56.0903 16.7478 56.6252 16.8852 56.9351 17.0747C57.5212 17.4358 58.105 17.8503 58.656 18.2474C58.9304 18.4539 59.7927 18.8846 59.8438 19.2295ZM42.2725 4.25982C42.0347 4.25734 41.7976 4.2865 41.5674 4.34651V4.38109H41.6006C41.7394 4.65638 41.9806 4.84728 42.1526 5.08752C42.2914 5.36373 42.4118 5.63764 42.5478 5.91338L42.581 5.87926C42.824 5.70726 42.9448 5.43152 42.9448 5.01789C42.8401 4.89616 42.824 4.77719 42.7368 4.65638C42.6354 4.48392 42.4118 4.39815 42.2725 4.25982Z" fill="#5D87A1"/>
<path d="M61.4846 38.2599H61.8415V36.5132H61.3062L60.8695 37.7051L60.395 36.5132H59.8795V38.2599H60.2165V36.9309H60.2354L60.7325 38.2599H60.9894L61.4846 36.9309V38.2599ZM58.6095 38.2599H58.9872V36.8092H59.4815V36.5127H58.0945V36.8092H58.6086L58.6095 38.2599Z" fill="#F8981D"/>
</svg>
