<svg width="42" height="42" viewBox="0 0 42 42" fill="none" xmlns="http://www.w3.org/2000/svg">
<path d="M21.5349 8.08685e-05C19.8163 0.00560716 18.6248 0.157028 17.1847 0.405711C12.9318 1.14623 12.157 2.70133 12.157 5.56727V9.94741H22.1041V12.1579H11.779H6.97123C4.05782 12.1579 1.50804 13.5307 0.700113 16.821C-0.212812 20.5977 -0.253706 22.9629 0.700113 26.9065C1.42404 29.8476 3.0189 32.0526 5.93341 32.0526H9.94763V26.4114C9.94763 23.1332 12.9163 19.8947 16.3182 19.8947H24.3157C27.1042 19.8947 29.8419 17.8368 29.8419 15.057V5.56727C29.8419 2.87154 27.8978 0.855551 25.18 0.4035C25.2474 0.396869 23.2392 -0.00655069 21.5349 8.08685e-05ZM16.0264 4.42112C16.9338 4.42112 17.6843 5.16938 17.6843 6.08122C17.6843 7.0019 16.9338 7.7369 16.0264 7.7369C15.1013 7.7369 14.3686 7.003 14.3686 6.08122C14.3686 5.17269 15.1013 4.42112 16.0264 4.42112Z" fill="#0277BD"/>
<path d="M20.4639 41.9999C22.1826 41.9944 23.374 41.843 24.8142 41.5943C29.0671 40.8538 29.8419 39.2987 29.8419 36.4327V32.0526H19.8947V29.8421H30.221H35.0288C37.9422 29.8421 40.4919 28.4693 41.2999 25.179C42.2128 21.4023 42.2537 19.037 41.2999 15.0935C40.5748 12.1524 38.98 9.94739 36.0655 9.94739H32.0512V15.5886C32.0512 18.8668 29.0826 22.1052 25.6807 22.1052H17.6832C14.8947 22.1052 12.157 24.1632 12.157 26.943V36.4327C12.157 39.1284 14.1011 41.1444 16.8189 41.5965C16.7515 41.6031 18.7597 42.0065 20.4639 41.9999ZM25.9735 37.5789C25.0661 37.5789 24.3157 36.8306 24.3157 35.9188C24.3157 34.9981 25.0661 34.2631 25.9735 34.2631C26.8986 34.2631 27.6314 34.997 27.6314 35.9188C27.6314 36.8273 26.8975 37.5789 25.9735 37.5789Z" fill="#FFC107"/>
</svg>
