<svg width="71" height="42" viewBox="0 0 71 42" fill="none" xmlns="http://www.w3.org/2000/svg">
<path d="M35.0085 0C25.6729 0 19.8382 4.66634 17.5043 13.999C21.0051 9.33269 25.0894 7.58372 29.7572 8.74921C32.4208 9.41437 34.3244 11.3471 36.4322 13.4856C39.863 16.9675 43.835 20.9993 52.5128 20.9993C61.8484 20.9993 67.6831 16.3329 70.017 6.99879C66.5162 11.6651 62.4318 13.4156 57.764 12.2501C55.1019 11.5849 53.1983 9.65214 51.0905 7.5137C47.6583 4.03035 43.6848 0 35.0085 0ZM17.5043 20.9993C8.16865 20.9993 2.3339 25.6656 0 34.9998C3.50085 30.3334 7.58518 28.583 12.253 29.7499C14.9151 30.4166 16.8187 32.3479 18.9265 34.4848C22.3588 37.9682 26.3322 42 35.0085 42C44.3441 42 50.1789 37.3337 52.5128 27.9995C49.0119 32.6659 44.9276 34.4163 40.2598 33.2493C37.5962 32.5842 35.6926 30.6514 33.5848 28.5144C30.154 25.0311 26.182 20.9993 17.5043 20.9993Z" fill="#00ACC1"/>
</svg>
