<?xml version="1.0" encoding="UTF-8"?>
<svg id="Layer_1" xmlns="http://www.w3.org/2000/svg" version="1.1" viewBox="0 0 800 800">
  <!-- Generator: Adobe Illustrator 29.5.1, SVG Export Plug-In . SVG Version: 2.1.0 Build 141)  -->
  <defs>
    <style>
      .st0 {
        fill: #45c7f8;
        opacity: .5;
      }
    </style>
  </defs>
  <path class="st0" d="M318.83,369.1c-24.62,0-43.85,22.31-43.85,49.74s19.74,49.74,43.85,49.74,43.85-22.56,43.85-49.74c.26-27.44-19.23-49.74-43.85-49.74Z"/>
  <path class="st0" d="M480.63,369.1c-24.62,0-43.85,22.31-43.85,49.74s19.74,49.74,43.85,49.74,43.85-22.56,43.85-49.74c.26-27.44-19.23-49.74-43.85-49.74h0Z"/>
  <path class="st0" d="M400,0C179.09,0,0,179.09,0,400s179.09,400,400,400,400-179.09,400-400S620.91,0,400,0ZM641.66,525c-42.05,31.54-83.08,50.51-123.34,63.08-10-13.59-18.72-28.21-26.41-43.33,14.36-5.64,28.46-12.31,41.54-20.26-3.59-2.56-6.92-5.13-10.26-7.95-79.23,37.44-166.16,37.44-246.41,0-3.33,2.56-6.67,5.38-10.26,7.95,13.08,7.95,26.92,14.87,41.54,20.26-7.69,15.13-16.41,29.74-26.41,43.33-40.26-12.56-81.03-31.54-123.34-63.08-8.46-92.05,8.72-185.65,72.31-281.54,31.54-14.62,65.13-25.39,100.51-31.54,4.36,7.69,9.49,18.21,13.08,26.67,36.67-5.64,73.85-5.64,111.28,0,3.33-8.46,8.46-18.97,12.82-26.67,35.39,6.15,68.98,16.92,100.51,31.54h.51c55.13,82.05,82.31,174.62,72.31,281.54h.02Z"/>
</svg>