<?xml version="1.0" encoding="UTF-8"?>
<svg id="Capa_1" data-name="Capa 1" xmlns="http://www.w3.org/2000/svg" viewBox="0 0 700 674.01">
  <defs>
    <style>
      .cls-1 {
        fill: #246a8d;
      }
    </style>
  </defs>
  <polygon class="cls-1" points="481.8 633.63 555.64 674.01 555.64 643.95 513.94 621.06 555.64 598.17 555.64 567.95 481.8 608.24 481.8 633.63"/>
  <polygon class="cls-1" points="566.38 674.01 581.53 674.01 612.59 564.95 597.35 564.95 566.38 674.01"/>
  <polygon class="cls-1" points="626.24 567.95 626.24 598 667.87 620.89 626.16 643.79 626.16 674.01 700 633.71 700 608.32 626.24 567.95"/>
  <polygon class="cls-1" points="635.8 540.37 635.8 0 0 0 0 635.8 463.74 635.8 463.74 616.23 19.56 616.23 19.56 19.56 616.23 19.56 616.23 540.37 635.8 540.37"/>
</svg>