<?xml version="1.0" encoding="UTF-8"?>
<svg id="Layer_1" xmlns="http://www.w3.org/2000/svg" version="1.1" viewBox="0 0 800 800">
  <!-- Generator: Adobe Illustrator 29.5.1, SVG Export Plug-In . SVG Version: 2.1.0 Build 141)  -->
  <defs>
    <style>
      .st0 {
        fill: #45c7f8;
        opacity: .5;
      }
    </style>
  </defs>
  <path class="st0" d="M400,0C179.09,0,0,179.09,0,400c0,188.88,130.95,347.08,307,389.02-9.11-2.17-18.14-4.6-27-7.37v-91.65s-15,5-35,5c-55.95,0-79.2-49.92-85-75-3.52-15.28-12.72-29.75-22.6-38.6-11.8-10.52-17.32-10.55-17.4-14.15-.15-7.55,10.12-7.25,15-7.25,25,0,43.95,26.6,52.75,40.35,21.8,33.95,45.2,39.65,57.25,39.65,15,0,27.95-2.25,36.88-6.55,4.12-29.05,17.05-54.92,38.12-73.45-93.8-18.75-160-72.55-160-160,0-45.05,18.08-86.45,48.2-119.88-3.08-8.72-8.2-26.37-8.2-55.12,0-19,1.32-42.32,10-65,0,0,57.05.4,110.85,51.35,24.83-7.23,51.4-11.35,79.15-11.35s54.32,4.12,79.15,11.35c53.8-50.95,110.85-51.35,110.85-51.35,8.72,22.68,10,46,10,65,0,31-4.12,49.08-6.65,56.88,29.2,33.12,46.65,73.88,46.65,118.12,0,87.45-66.2,141.25-160,160,25.05,22,40,54.05,40,90v131.65c-8.86,2.78-17.88,5.2-27,7.37,176.05-41.94,307-200.14,307-389.02C800,179.09,620.91,0,400,0h0ZM427.89,798.92c-9.22.65-18.51,1.08-27.89,1.08,9.38,0,18.66-.45,27.89-1.08ZM489.02,789.94c-17.91,4.08-36.26,6.94-55,8.52,18.74-1.58,37.09-4.46,55-8.52ZM400,800c-9.38,0-18.68-.43-27.89-1.08,9.23.63,18.51,1.08,27.89,1.08ZM365.97,798.46c-18.72-1.58-37.09-4.45-54.98-8.52,17.91,4.06,36.26,6.94,54.98,8.52Z"/>
</svg>