<svg width="83" height="42" viewBox="0 0 83 42" fill="none" xmlns="http://www.w3.org/2000/svg">
<path d="M82.8888 0H45.3098L48.6256 37.5789L64.0993 42L79.573 37.5789L82.8888 0Z" fill="#0277BD"/>
<path d="M64.0992 3.3158V38.5737L76.4782 35.0368L79.2413 3.3158H64.0992Z" fill="#039BE5"/>
<path d="M74.1571 8.8421H64.0992V13.2632H69.515L69.1835 17.6842H64.0992V22.1053H68.9624L68.6308 27.0789L64.0992 28.6263V33.2684L72.8308 30.3947L73.6045 17.6842L74.1571 8.8421Z" fill="white"/>
<path d="M64.0993 8.8421V13.2632H54.2625L53.9309 8.8421H64.0993ZM59.0151 17.6842L59.2362 22.1053H64.0993V17.6842H59.0151ZM59.4572 24.3158H55.0362L55.3678 30.3947L64.0993 33.2684V28.6263L59.5677 27.0789L59.4572 24.3158Z" fill="#EEEEEE"/>
<path d="M37.5789 0H0L3.31579 37.5789L18.7895 42L34.2632 37.5789L37.5789 0Z" fill="#E65100"/>
<path d="M18.7894 3.3158V38.5737L31.1684 35.0368L33.9315 3.3158H18.7894Z" fill="#FF6D00"/>
<path d="M18.7894 22.1053V17.6842H28.2947L27.521 30.3947L18.7894 33.2684V28.6263L23.321 27.0789L23.6526 22.1053H18.7894ZM28.6263 13.2632L28.9579 8.8421H18.7894V13.2632H28.6263Z" fill="white"/>
<path d="M18.7896 28.6263V33.2684L10.058 30.3947L9.6159 24.3158H14.037L14.258 27.0789L18.7896 28.6263ZM13.3738 13.2632H18.7896V8.8421H8.73169L9.50537 22.1053H18.7896V17.6842H13.7054L13.3738 13.2632Z" fill="#EEEEEE"/>
</svg>
