<svg width="42" height="42" viewBox="0 0 42 42" fill="none" xmlns="http://www.w3.org/2000/svg">
<path d="M0 4.66667C0 2.0895 2.0895 0 4.66667 0H37.3333C39.9105 0 42 2.0895 42 4.66667V37.3333C42 39.9105 39.9105 42 37.3333 42H4.66667C2.0895 42 0 39.9105 0 37.3333V4.66667Z" fill="#FF5722"/>
<path d="M3.5 3.5V38.5H38.5V3.5H3.5ZM20.6395 29.1667L19.7505 25.7717H15.1818L14.294 29.1667H10.7508L15.9343 12.5778H18.9992L24.2177 29.1667H20.6395ZM28.9917 29.1667H25.7565V16.8397H28.9917V29.1667ZM28.644 14.8797C28.3278 15.2063 27.902 15.3697 27.3618 15.3697C26.8217 15.3697 26.3958 15.2063 26.0797 14.8797C25.7635 14.553 25.6072 14.1423 25.6072 13.6488C25.6072 13.1472 25.767 12.7377 26.0855 12.418C26.404 12.0983 26.831 11.9397 27.3618 11.9397C27.8927 11.9397 28.3185 12.0995 28.6382 12.418C28.9578 12.7365 29.1165 13.1472 29.1165 13.6488C29.1165 14.1423 28.959 14.553 28.644 14.8797Z" fill="#1C0802"/>
<path d="M15.9122 22.9798H19.0109L17.4616 17.0671L15.9122 22.9798Z" fill="#1C0802"/>
</svg>
