<?xml version="1.0" encoding="UTF-8"?>
<svg id="Layer_1" xmlns="http://www.w3.org/2000/svg" version="1.1" viewBox="0 0 800 800">
  <!-- Generator: Adobe Illustrator 29.5.1, SVG Export Plug-In . SVG Version: 2.1.0 Build 141)  -->
  <defs>
    <style>
      .st0 {
        fill: #45c7f8;
        opacity: .5;
      }
    </style>
  </defs>
  <circle class="st0" cx="400.04" cy="400.04" r="134.88"/>
  <path class="st0" d="M400,0C179.09,0,0,179.09,0,400s179.09,400,400,400,400-179.09,400-400S620.91,0,400,0ZM607.83,400.04c0,114.76-93.03,207.79-207.79,207.79s-207.79-93.03-207.79-207.79,93.03-207.79,207.79-207.79,207.79,93.03,207.79,207.79h0ZM616,232.63c-26.81,0-48.55-21.74-48.55-48.55s21.74-48.55,48.55-48.55,48.55,21.74,48.55,48.55-21.74,48.55-48.55,48.55Z"/>
</svg>