<svg width="42" height="42" viewBox="0 0 42 42" fill="none" xmlns="http://www.w3.org/2000/svg">
<g clip-path="url(#clip0_11_199)">
<path d="M0 42V0H42V42H0Z" fill="#FFD600"/>
<path d="M27.4609 31.4382C28.2683 32.7495 29.1456 34.006 31.0041 34.006C32.5651 34.006 33.3841 33.2302 33.3841 32.1568C33.3841 30.8723 32.5371 30.4162 30.8198 29.6683L29.8783 29.267C27.1611 28.1143 25.3539 26.67 25.3539 23.6192C25.3539 20.8075 27.5064 18.6678 30.8699 18.6678C33.2651 18.6678 34.9859 19.4973 36.2273 21.6697L33.2943 23.5445C32.6491 22.3918 31.9514 21.938 30.8699 21.938C29.7663 21.938 29.0674 22.6345 29.0674 23.5445C29.0674 24.6692 29.7674 25.1242 31.3833 25.8207L32.3248 26.222C35.5273 27.5858 37.3333 28.9788 37.3333 32.1102C37.3333 35.4842 34.6686 37.3333 31.0916 37.3333C27.5928 37.3333 25.6059 35.5775 24.4999 33.404L27.4609 31.4382ZM13.9439 31.5338C14.5343 32.5908 15.4314 33.404 16.7218 33.404C17.9561 33.404 18.6666 32.9163 18.6666 31.0205V18.6667H22.5551V31.6178C22.5551 35.546 20.2766 37.3333 16.9493 37.3333C13.9428 37.3333 11.7728 35.2963 10.8884 33.404L13.9439 31.5338Z" fill="#000001"/>
</g>
<defs>
<clipPath id="clip0_11_199">
<rect width="42" height="42" fill="white"/>
</clipPath>
</defs>
</svg>
