<?xml version="1.0" encoding="UTF-8"?>
<svg id="Layer_1" xmlns="http://www.w3.org/2000/svg" version="1.1" viewBox="0 0 800 800">
  <!-- Generator: Adobe Illustrator 29.5.1, SVG Export Plug-In . SVG Version: 2.1.0 Build 141)  -->
  <defs>
    <style>
      .st0 {
        fill: #45c7f8;
        opacity: .5;
      }
    </style>
  </defs>
  <path class="st0" d="M400,0C179.08,0,0,179.1,0,400s179.07,400,400,400,400-179.1,400-400S620.92,0,400,0ZM262.5,200c20.7,0,37.5,16.8,37.5,37.5s-16.8,37.5-37.5,37.5-37.5-16.8-37.5-37.5,16.8-37.5,37.5-37.5ZM300.3,549.6h-74.9v-249.65h74.9v249.65ZM600.18,549.58h-74.9v-136.13c0-27.93-8.1-55.85-40.95-55.85s-59.07,27.93-59.07,56.55v135.45h-75.18v-250.47h75.18v34.75c23.07-29.3,55.6-42.58,91.95-42.58s82.97,18.15,82.98,116.58v141.7h0Z"/>
</svg>