<svg id="a946e349-359a-44d0-a39c-bb5fa8530993" data-name="Capa 1" xmlns="http://www.w3.org/2000/svg" viewBox="0 0 500 500"><defs><style>.ea13dde1-cc10-4104-9cae-c88ed1ddf7fb{fill:#fff;}</style></defs><path class="ea13dde1-cc10-4104-9cae-c88ed1ddf7fb" d="M147.17,160.35l.39,149.58A48.15,48.15,0,0,1,144,328.42a46.66,46.66,0,0,1-10.21,15.41,50.55,50.55,0,0,1-15.35,10.56,46.71,46.71,0,0,1-19,3.9l-48.08.23L18.67,429.8l81-.24A119.35,119.35,0,0,0,185,393.94a125.85,125.85,0,0,0,25.53-38,113.41,113.41,0,0,0,9.36-46.19l-.35-149.37Z"/><polygon class="ea13dde1-cc10-4104-9cae-c88ed1ddf7fb" points="71.31 136.87 241.51 136.87 241.51 70.2 35.92 70.2 71.31 136.87"/><path class="ea13dde1-cc10-4104-9cae-c88ed1ddf7fb" d="M448.59,358.52l-48.08-.23a46.71,46.71,0,0,1-19-3.9,50.55,50.55,0,0,1-15.35-10.56A46.66,46.66,0,0,1,356,328.42a48.15,48.15,0,0,1-3.54-18.49l.39-149.58H280.48l-.35,149.37a113.41,113.41,0,0,0,9.36,46.19,125.85,125.85,0,0,0,25.53,38,119.35,119.35,0,0,0,85.28,35.62l81,.24Z"/><polygon class="ea13dde1-cc10-4104-9cae-c88ed1ddf7fb" points="464.08 70.2 258.49 70.2 258.49 136.87 428.69 136.87 464.08 70.2"/></svg>