<svg width="106" height="42" viewBox="0 0 106 42" fill="none" xmlns="http://www.w3.org/2000/svg">
<path d="M37.9369 15.7044L27.1163 21.6913C26.7106 21.914 26.4614 22.3286 26.4614 22.7762V34.7567C26.4614 35.2043 26.7106 35.6167 27.1163 35.8416L37.9391 41.833C38.3427 42.0557 38.8432 42.0557 39.2468 41.833L50.0673 35.8416C50.4687 35.6167 50.7178 35.2043 50.7178 34.7567V22.7762C50.7178 22.3286 50.4687 21.9162 50.0629 21.6913L39.2446 15.7044C39.0417 15.5919 38.8146 15.5368 38.5896 15.5368C38.3625 15.5368 38.1376 15.5919 37.9347 15.7044M93.6098 26.4897L91.806 27.4864C91.7377 27.5239 91.698 27.5922 91.698 27.6672V29.6651C91.698 29.74 91.7399 29.8084 91.806 29.8459L93.6098 30.8448C93.6782 30.8823 93.7598 30.8823 93.8281 30.8448L95.6319 29.8459C95.6981 29.8084 95.74 29.74 95.74 29.6651V27.6672C95.74 27.5922 95.6981 27.5239 95.6297 27.4864L93.8259 26.4897C93.7928 26.4698 93.7554 26.461 93.7179 26.461C93.6804 26.461 93.6429 26.4698 93.6098 26.4897Z" fill="#388E3C"/>
<path d="M78.8355 3.00728L73.5675 0.0678459C73.4021 -0.0247695 73.1992 -0.0225638 73.036 0.0744619C72.8728 0.171488 72.7714 0.345692 72.7714 0.535333L72.7692 18.291L67.9113 15.603C67.7084 15.4905 67.4813 15.4354 67.2564 15.4354C67.0315 15.4354 66.8043 15.4905 66.6015 15.603H66.6037L55.7831 21.5899C55.3774 21.8126 55.1282 22.2272 55.1282 22.6726V34.6531C55.1282 35.1007 55.3774 35.5131 55.7831 35.738L66.6059 41.7294C67.0094 41.9521 67.51 41.9521 67.9135 41.7294L78.7341 35.738C79.1354 35.5153 79.3846 35.1007 79.3846 34.6531V3.94226C79.3846 3.55416 79.1729 3.19692 78.8355 3.00728ZM72.4737 31.8812L67.5563 34.6046C67.3733 34.706 67.1461 34.706 66.9631 34.6046L62.0435 31.8812C61.856 31.7798 61.7436 31.5902 61.7436 31.3873V25.9406C61.7436 25.7378 61.856 25.5503 62.0413 25.4467L66.9609 22.7255C67.0535 22.6748 67.1527 22.6506 67.2564 22.6506C67.36 22.6506 67.4615 22.677 67.5541 22.7255L72.4715 25.4467C72.6568 25.5503 72.7692 25.74 72.7692 25.9428V31.3895C72.7692 31.5902 72.6567 31.7798 72.4737 31.8812Z" fill="white"/>
<path d="M37.9369 15.7044L26.4614 34.7567C26.4614 35.2043 26.7106 35.6167 27.1163 35.8416L37.9391 41.833C38.3427 42.0557 38.8432 42.0557 39.2468 41.833L50.7178 22.7762C50.7178 22.3286 50.4687 21.9162 50.0629 21.6913L39.2446 15.7044C39.0417 15.5919 38.8146 15.5368 38.5896 15.5368C38.3625 15.5368 38.1376 15.5919 37.9347 15.7044" fill="#2E7D32"/>
<path d="M37.9369 15.7044L27.1163 21.6913C26.7106 21.914 26.4614 22.3286 26.4614 22.7762L37.9369 41.833C38.3405 42.0557 38.841 42.0557 39.2446 41.833L50.0651 35.8416C50.4687 35.6167 50.7178 35.2043 50.7178 34.7567L39.2446 15.7044C39.0417 15.5919 38.8146 15.5368 38.5896 15.5368C38.3625 15.5368 38.1376 15.5919 37.9347 15.7044" fill="#4CAF50"/>
<path d="M105.191 21.5899L94.3729 15.603C94.17 15.4905 93.9429 15.4354 93.718 15.4354C93.4931 15.4354 93.2659 15.4905 93.0631 15.603L82.2447 21.5899C81.8412 21.8126 81.5898 22.236 81.5898 22.6991V34.631C81.5898 35.0919 81.8412 35.5175 82.2447 35.7402L93.0675 41.7315C93.4732 41.9565 93.9694 41.9565 94.3751 41.7315L99.3653 38.9685C99.8218 38.7149 99.8196 38.06 99.3609 37.8086L88.5029 31.8834C88.3198 31.7798 88.2052 31.5879 88.2052 31.3807V25.9428C88.2052 25.7399 88.3154 25.5525 88.4918 25.4555L93.4203 22.7299H93.4181C93.5107 22.6792 93.6121 22.655 93.7158 22.655C93.8194 22.655 93.9209 22.6814 94.0135 22.7299L98.9419 25.4577C99.1183 25.5547 99.2286 25.7421 99.2286 25.945V30.3817C99.2286 30.5714 99.33 30.7478 99.4954 30.8426C99.6608 30.9352 99.8637 30.9352 100.029 30.8404L105.317 27.7687C105.643 27.579 105.846 27.2284 105.846 26.8491V22.7035C105.846 22.2382 105.595 21.8126 105.191 21.5899ZM23.6015 21.5899L12.7831 15.603C12.5803 15.4905 12.3531 15.4354 12.1282 15.4354C11.9033 15.4354 11.6762 15.4905 11.4733 15.603L0.654923 21.5899C0.251385 21.8126 0 22.236 0 22.6991V39.1603C0 39.35 0.101436 39.5264 0.266821 39.6212C0.432205 39.7138 0.635077 39.7138 0.800462 39.619L6.08836 36.5473C6.41472 36.3576 6.61539 36.007 6.61539 35.6277V25.9406C6.61539 25.7377 6.72564 25.5503 6.90205 25.4533L11.8305 22.7277C11.9231 22.677 12.0246 22.6528 12.1282 22.6528C12.2319 22.6528 12.3333 22.6792 12.4259 22.7277L17.3544 25.4555C17.5308 25.5525 17.641 25.7399 17.641 25.9428V35.6299C17.641 36.0092 17.8417 36.3598 18.1703 36.5495L23.4582 39.6212C23.6235 39.716 23.8264 39.716 23.9918 39.6234C24.155 39.5264 24.2564 39.35 24.2564 39.1603V22.7013C24.2564 22.2382 24.005 21.8126 23.6015 21.5899Z" fill="white"/>
</svg>
