<svg width="42" height="42" viewBox="0 0 42 42" fill="none" xmlns="http://www.w3.org/2000/svg">
<path d="M0 4.66667C0 2.0895 2.0895 0 4.66667 0H37.3333C39.9105 0 42 2.0895 42 4.66667V37.3333C42 39.9105 39.9105 42 37.3333 42H4.66667C2.0895 42 0 39.9105 0 37.3333V4.66667Z" fill="#03A9F4"/>
<path d="M16.352 15.3696H14.0164V20.5426H16.3182C16.9564 20.5426 17.4499 20.3338 17.7999 19.9161C18.1499 19.4985 18.3237 18.8906 18.3237 18.0926C18.3237 17.2643 18.1452 16.6063 17.7882 16.1163C17.4312 15.6263 16.9517 15.3778 16.352 15.3696Z" fill="#020F16"/>
<path d="M3.5 3.5V38.5H38.5V3.5H3.5ZM20.2592 21.9205C19.2955 22.8632 17.9585 23.3333 16.2493 23.3333H14.0163V29.1667H10.6668V12.5778H16.3182C17.9585 12.5778 19.2675 13.0877 20.2428 14.105C21.2182 15.1223 21.707 16.4442 21.707 18.0693C21.707 19.6945 21.224 20.9778 20.2592 21.9205ZM31.129 28.392C30.3018 29.0605 29.2145 29.3942 27.8705 29.3942C26.9663 29.3942 26.1683 29.218 25.4777 28.8645C24.787 28.511 24.2445 28.0187 23.8537 27.3887C23.4628 26.7587 23.2668 26.0785 23.2668 25.3493H26.3317C26.348 25.9105 26.4775 26.3328 26.7248 26.614C26.9722 26.8952 27.3758 27.0352 27.9382 27.0352C28.8038 27.0352 29.2367 26.6443 29.2367 25.8615C29.2367 25.5885 29.106 25.3353 28.8435 25.1043C28.581 24.8733 28 24.5607 27.0958 24.1652C25.767 23.6262 24.8535 23.0685 24.3553 22.4898C23.8572 21.9112 23.6087 21.1948 23.6087 20.3362C23.6087 19.257 23.9983 18.3668 24.7765 17.6645C25.5547 16.9622 26.5872 16.611 27.8693 16.611C29.2203 16.611 30.303 16.961 31.1162 17.6587C31.9293 18.3563 32.3353 19.2955 32.3353 20.4727H29.1107C29.1107 19.4705 28.6942 18.9688 27.8577 18.9688C27.5158 18.9688 27.2358 19.075 27.0142 19.2873C26.7925 19.4997 26.684 19.7972 26.684 20.1763C26.684 20.4493 26.8053 20.6908 27.0492 20.8997C27.293 21.1085 27.8647 21.4072 28.77 21.7945C30.0848 22.281 31.0123 22.8223 31.556 23.4185C32.0997 24.0147 32.3703 24.7882 32.3703 25.7367C32.3703 26.8392 31.9562 27.7235 31.129 28.392Z" fill="#020F16"/>
</svg>
