<svg width="41" height="42" viewBox="0 0 41 42" fill="none" xmlns="http://www.w3.org/2000/svg">
<path d="M40.1841 25.5716C40.0095 24.7805 39.2918 23.8577 37.8441 23.8577C37.5483 23.8577 37.2248 23.8949 36.8564 23.9712C36.1808 24.1106 35.6053 24.1783 35.0986 24.2012C39.0427 17.4829 41.6031 8.15073 39.0676 4.91086C35.7265 0.642249 31.2289 0.00477164 28.846 0.00477164L28.6217 0.00572588C27.7352 0.0200405 26.8152 0.128831 25.8895 0.329236L22.4702 1.06787C22.0045 1.00966 21.5303 0.968621 21.0359 0.960033H21.0073H20.992L20.847 0.959078C19.3268 0.959078 17.9402 1.28163 16.7043 1.88762L15.5105 1.41715C13.8691 0.770126 11.3993 0 8.95631 0C8.81889 0 8.68242 0.00286305 8.545 0.00763458C6.13824 0.0944765 4.07121 1.00775 2.56627 2.6482C0.688193 4.69614 -0.166866 7.69171 0.0268579 11.5528C0.036401 11.7523 2.37254 31.4979 8.99448 31.4979H9.01834L9.07941 31.4969C9.93924 31.4759 10.759 31.1304 11.5253 30.4691C12.1103 30.9081 12.8671 31.1677 13.5723 31.2707C14.038 31.3805 14.8759 31.536 15.8798 31.536C17.1051 31.536 18.2102 31.285 19.1626 30.8317C19.1617 31.6715 19.1569 32.7346 19.1474 34.0936L19.1464 34.1651L19.1512 34.2367C19.2437 35.5909 19.4775 36.8114 19.8297 37.7686C20.8327 40.497 22.5647 42 24.7071 42C24.7959 42 24.8866 41.9971 24.9782 41.9914C26.7398 41.8826 28.5253 40.893 29.7535 39.3461C31.0829 37.6713 31.3902 35.9039 31.5085 34.5497L31.5161 34.4667V34.3827V30.4901L31.6144 30.4996L32.0305 30.5359L32.0706 30.5397L32.1107 30.5416C32.229 30.5474 32.3511 30.5493 32.4742 30.5493C33.9124 30.5493 35.6826 30.1761 36.8793 29.6198C38.0235 29.0892 40.6383 27.631 40.1841 25.5716Z" fill="white"/>
<path d="M29.6076 29.5892C29.6076 29.3936 29.619 29.2304 29.6248 29.05C29.6152 28.8105 29.6076 28.6349 29.6076 28.6349C29.6076 28.6349 29.619 28.6263 29.6381 28.6139C29.7803 26.063 30.4836 25.0801 31.2366 24.5199C31.1316 24.3739 31.0104 24.2164 30.8968 24.0666C30.5791 23.6496 30.183 23.1324 29.7593 22.4691L29.6811 22.3183C29.6171 22.1618 29.4625 21.8918 29.2659 21.5368C28.137 19.4945 25.7875 15.246 27.3955 12.5625C28.0998 11.3867 29.4205 10.7092 31.3282 10.5422C30.5485 8.32533 27.6274 2.97835 21.0045 2.86861C21.0026 2.86861 21.0007 2.86861 20.9988 2.86861C15.2338 2.77508 13.3395 8.01423 12.723 11.1444C13.5724 10.7846 14.5419 10.566 15.4294 10.566C15.4428 10.566 15.4571 10.566 15.4705 10.566C17.6558 10.5823 19.1589 11.7484 19.5959 13.7668C19.9156 15.2479 20.0693 16.5438 20.0655 17.73C20.0559 20.3248 19.533 21.6894 19.0711 22.8938L18.9241 23.2831C18.8058 23.6019 18.6808 23.8987 18.5624 24.1773C18.4422 24.4617 18.3363 24.7146 18.259 24.9427C18.7208 25.0477 19.0835 25.1956 19.3326 25.3053L19.4767 25.3683C19.5215 25.3874 19.5664 25.4093 19.6074 25.4341C20.4166 25.9266 20.9205 26.6833 21.0284 27.5651C21.0866 28.0404 21.077 31.2802 21.057 34.1069C21.14 35.3332 21.348 36.3629 21.6229 37.1091C22.0132 38.1722 22.9885 40.202 24.8618 40.0856C26.1692 40.0045 27.426 39.2086 28.2601 38.1589C29.1552 37.0318 29.4854 35.7855 29.6095 34.3817V29.5892H29.6076Z" fill="#0277BD"/>
<path d="M12.5388 24.7385C10.9995 23.1324 10.2494 20.9719 10.5309 18.9592C10.8029 17.0172 10.6492 15.1162 10.5662 14.0942C10.5385 13.7535 10.5204 13.4996 10.5214 13.3594C10.5214 13.3517 10.5233 13.345 10.5242 13.3374C10.5242 13.3336 10.5223 13.3307 10.5223 13.3269C10.6378 10.444 11.7496 5.89573 14.81 3.19218C13.3194 2.60528 10.8916 1.83134 8.61275 1.91436C5.04173 2.04415 1.58523 4.51389 1.9326 11.4574C2.06334 14.0627 5.00738 29.6876 9.03264 29.5893C9.60809 29.5749 10.2055 29.2056 10.8191 28.467C11.7896 27.2999 12.7325 26.2416 13.4034 25.5048C13.1028 25.2767 12.8127 25.0248 12.5388 24.7385ZM33.4467 11.2007C33.461 11.3477 33.4486 11.4737 33.4257 11.5901C33.4553 12.468 33.3608 13.3202 33.2644 14.1448C33.1938 14.7517 33.1213 15.3787 33.1012 16.0076C33.0812 16.6231 33.168 17.231 33.2596 17.8742C33.4743 19.3801 33.6977 21.0797 32.5296 23.0628C32.7443 23.3452 32.9333 23.6077 33.084 23.8615C37.4834 16.7281 39.2565 8.24809 37.5645 6.08659C35.0041 2.81523 31.4598 1.86855 28.6522 1.91436C27.7733 1.92867 26.9746 2.04701 26.2922 2.19493C31.1363 4.54252 33.294 9.57363 33.4467 11.2007ZM37.242 25.8398C34.6987 26.3647 33.4753 26.085 32.8817 25.7195C32.7863 25.7883 32.6909 25.8465 32.6021 25.9009C32.2471 26.1156 31.685 26.4572 31.5476 28.5557C31.6268 28.571 31.6965 28.5796 31.7824 28.5977L32.1975 28.635C33.4572 28.6922 35.1072 28.3391 36.0748 27.8896C38.16 26.922 39.2966 25.4161 37.242 25.8398ZM19.1321 27.7942C19.0968 27.5098 18.9431 27.2798 18.6626 27.0957L18.5595 27.0508C18.215 26.8991 17.8247 26.7263 17.2015 26.7263H17.1977C17.0765 26.7359 16.9563 26.7445 16.8351 26.7445C16.7854 26.7445 16.7368 26.7378 16.6871 26.7359C16.2348 27.0842 15.5916 27.3533 13.9998 27.6806C11.156 28.405 12.8346 29.26 13.9254 29.3927C14.9808 29.657 17.4897 29.9786 19.1559 28.6206C19.1512 28.1931 19.1435 27.8992 19.1321 27.7942Z" fill="#0277BD"/>
<path d="M17.8514 14.7984C17.5728 15.0866 17.1328 15.3385 16.6471 15.2603C15.8569 15.1324 15.2509 14.179 15.2948 13.8212C15.3368 13.4643 16.0115 13.2782 16.8007 13.4061C17.0746 13.4509 17.3237 13.5282 17.5336 13.6236C17.2283 12.9671 16.6757 12.5882 15.8331 12.4956C14.3396 12.3296 12.7545 13.1102 12.4357 13.5425C12.4424 13.6475 12.4548 13.7821 12.4672 13.9405C12.556 15.0351 12.7201 17.0744 12.4195 19.2245C12.221 20.6416 12.7945 22.2487 13.9149 23.4186C14.6373 24.1725 15.4809 24.6497 16.3131 24.7909C16.419 24.3348 16.608 23.8901 16.8026 23.431C16.9105 23.1782 17.025 22.909 17.1328 22.618L17.2874 22.2105C17.7102 21.1083 18.1463 19.9679 18.1549 17.7224C18.1587 16.8587 18.0528 15.8729 17.8514 14.7984ZM31.3701 18.1442C31.2709 17.4485 31.1688 16.728 31.1936 15.9464C31.2155 15.2383 31.2938 14.5703 31.3692 13.9242C31.4283 13.4156 31.4742 12.927 31.5009 12.4451C30.2708 12.5472 29.4539 12.9022 29.0664 13.5024C29.2268 13.448 29.4081 13.4051 29.6085 13.3793C30.4597 13.2686 31.081 13.5139 31.1525 13.9872C31.205 14.3336 30.9111 14.66 30.7823 14.785C30.5179 15.0417 30.1849 15.2068 29.8461 15.2507C29.785 15.2584 29.723 15.2622 29.6629 15.2622C29.326 15.2622 29.0044 15.1467 28.7572 14.9759C28.8641 16.8587 30.2526 19.3772 30.9359 20.613C31.0819 20.8773 31.1945 21.0882 31.2881 21.2695C31.6631 20.2017 31.5247 19.2283 31.3701 18.1442Z" fill="#0277BD"/>
</svg>
