<svg width="47" height="42" viewBox="0 0 47 42" fill="none" xmlns="http://www.w3.org/2000/svg">
<path d="M23.4757 31.1807C10.3089 31.1807 0 26.6897 0 20.9739C0 15.258 10.3089 10.767 23.4757 10.767C36.6425 10.767 46.9514 15.258 46.9514 20.9739C46.9514 26.6897 36.6425 31.1807 23.4757 31.1807ZM23.4757 12.8084C10.6151 12.8084 2.04137 16.9932 2.04137 20.9739C2.04137 24.9545 10.6151 29.1393 23.4757 29.1393C36.3363 29.1393 44.9101 24.9545 44.9101 20.9739C44.9101 16.9932 36.3363 12.8084 23.4757 12.8084Z" fill="#80DEEA"/>
<path d="M14.3917 42C13.371 42 12.5545 41.7959 11.7379 41.2855C6.73656 38.4276 8.06345 27.3022 14.5958 15.8705C17.6579 10.563 21.4344 6.07196 25.1089 3.21405C29.0895 0.152 32.6619 -0.766615 35.1116 0.662342C37.6633 2.0913 38.5819 5.66369 37.9695 10.665C37.3571 15.3602 35.3157 20.8719 32.2536 26.1794C29.1916 31.487 25.4151 35.978 21.7406 38.8359C19.0868 40.8773 16.5351 42 14.3917 42ZM32.5598 1.98923C30.9268 1.98923 28.7833 2.90785 26.4357 4.74507C22.9654 7.50092 19.393 11.7878 16.433 16.8912C10.0027 28.0167 9.39033 37.6111 12.7586 39.5504C14.4938 40.5711 17.3517 39.6524 20.5158 37.2028C23.9861 34.447 27.5585 30.1601 30.5185 25.0567C33.4785 19.9533 35.4178 14.7478 36.0302 10.3588C36.5405 6.2761 35.9281 3.41819 34.1929 2.3975C33.6826 2.19337 33.1723 1.98923 32.5598 1.98923Z" fill="#80DEEA"/>
<path d="M32.6617 42C27.5583 42 20.2094 35.7738 14.6977 26.0773C8.06328 14.6457 6.73639 3.52023 11.7377 0.66232C16.7391 -2.19559 25.7211 4.43885 32.3555 15.8705C35.4176 21.1781 37.459 26.6897 38.0714 31.3849C38.7858 36.3862 37.7652 39.8566 35.2135 41.3876C34.3969 41.7958 33.5804 42 32.6617 42ZM12.7584 2.39748C9.39017 4.33678 10.0026 13.9312 16.4329 25.0566C22.8632 36.1821 30.8245 41.4896 34.1928 39.5503C35.9279 38.5297 36.5403 35.6718 36.03 31.589C35.4176 27.2001 33.4783 21.9946 30.5183 16.8912C24.088 5.76574 16.1267 0.458183 12.7584 2.39748Z" fill="#80DEEA"/>
<path d="M23.4758 25.0566C25.7306 25.0566 27.5585 23.2287 27.5585 20.9739C27.5585 18.7191 25.7306 16.8912 23.4758 16.8912C21.221 16.8912 19.3931 18.7191 19.3931 20.9739C19.3931 23.2287 21.221 25.0566 23.4758 25.0566Z" fill="#80DEEA"/>
</svg>
