<?xml version="1.0" encoding="UTF-8"?>
<svg id="Layer_1" xmlns="http://www.w3.org/2000/svg" version="1.1" viewBox="0 0 800 800">
  <!-- Generator: Adobe Illustrator 29.5.1, SVG Export Plug-In . SVG Version: 2.1.0 Build 141)  -->
  <defs>
    <style>
      .st0 {
        fill: #45c7f8;
        opacity: .5;
      }
    </style>
  </defs>
  <path class="st0" d="M400,0C179.08,0,0,179.08,0,400s179.08,400,400,400,400-179.08,400-400S620.92,0,400,0ZM561.65,579.4h.01s-401.18-157.38-401.18-157.38c0,0-18.98-6.49-17.49-18.48,1.5-11.99,16.99-17.48,16.99-17.48l100.92-33.97s0-.01,0-.02l242.29,153.88h.01s13.99,8.49,13.49,0c0,0,2.5-1.5-5-8.49-7.49-7-190.35-171.36-190.35-171.36l-.26-2.25-.42.33-.11-.94-59.65,28.83c.31-1.02,30.5-99.99,36.46-118.88,5.99-18.98,10.81-19.44,10.81-19.44,0,0,0,0,0,0l12.38,109.49.29-.14.14-.1-12.81-109.25c5.58-2.42,10.67,1.44,10.67,1.44l65.21,59.46-63.07,48.35.1.85,62.97-49.2h0s101.65-77.94,101.65-77.94c27.48-11.99,37.47,12.99,37.47,12.99l71.44,360.21c0,23.98-32.97,9.49-32.97,9.49Z"/>
</svg>